<?xml version="1.0" encoding="UTF-8" standalone="no"?>
<!DOCTYPE svg PUBLIC "-//W3C//DTD SVG 1.1//EN"
 "http://www.w3.org/Graphics/SVG/1.1/DTD/svg11.dtd">
<!-- Generated by graphviz version 12.2.1 (0)
 -->
<!-- Pages: 1 -->
<svg width="1113pt" height="764pt"
 viewBox="0.00 0.00 1113.38 764.00" xmlns="http://www.w3.org/2000/svg" xmlns:xlink="http://www.w3.org/1999/xlink">
<g id="graph0" class="graph" transform="scale(1 1) rotate(0) translate(4 760)">
<polygon fill="white" stroke="none" points="-4,4 -4,-760 1109.38,-760 1109.38,4 -4,4"/>
<!-- 0 -->
<g id="node1" class="node">
<title>0</title>
<polygon fill="none" stroke="black" points="711.5,-36 583.75,-36 583.75,0 711.5,0 711.5,-36"/>
<text text-anchor="middle" x="647.62" y="-13.32" font-family="Times,serif" font-size="14.00">pangalactic&#45;b64</text>
</g>
<!-- 1 -->
<g id="node2" class="node">
<title>1</title>
<polygon fill="none" stroke="black" points="601.75,-108 439.5,-108 439.5,-72 601.75,-72 601.75,-108"/>
<text text-anchor="middle" x="520.62" y="-85.33" font-family="Times,serif" font-size="14.00">pangalactic&#45;chomper</text>
</g>
<!-- 2 -->
<g id="node3" class="node">
<title>2</title>
<polygon fill="none" stroke="black" points="937.12,-108 816.12,-108 816.12,-72 937.12,-72 937.12,-108"/>
<text text-anchor="middle" x="876.62" y="-85.33" font-family="Times,serif" font-size="14.00">pangalactic&#45;cid</text>
</g>
<!-- 3 -->
<g id="node4" class="node">
<title>3</title>
<polygon fill="none" stroke="black" points="664.38,-756 496.88,-756 496.88,-720 664.38,-720 664.38,-756"/>
<text text-anchor="middle" x="580.62" y="-733.33" font-family="Times,serif" font-size="14.00">pangalactic&#45;cli&#45;revcon</text>
</g>
<!-- 9 -->
<g id="node10" class="node">
<title>9</title>
<polygon fill="none" stroke="black" points="654.25,-684 507,-684 507,-648 654.25,-648 654.25,-684"/>
<text text-anchor="middle" x="580.62" y="-661.33" font-family="Times,serif" font-size="14.00">pangalactic&#45;revcon</text>
</g>
<!-- 3&#45;&gt;9 -->
<g id="edge1" class="edge">
<title>3&#45;&gt;9</title>
<path fill="none" stroke="black" d="M580.62,-719.7C580.62,-712.41 580.62,-703.73 580.62,-695.54"/>
<polygon fill="black" stroke="black" points="584.13,-695.62 580.63,-685.62 577.13,-695.62 584.13,-695.62"/>
</g>
<!-- 23 -->
<g id="node24" class="node">
<title>23</title>
<polygon fill="none" stroke="black" points="147.25,-612 0,-612 0,-576 147.25,-576 147.25,-612"/>
<text text-anchor="middle" x="73.62" y="-589.33" font-family="Times,serif" font-size="14.00">pangalactic&#45;runopt</text>
</g>
<!-- 3&#45;&gt;23 -->
<g id="edge2" class="edge">
<title>3&#45;&gt;23</title>
<path fill="none" stroke="black" d="M496.46,-734.55C386.31,-730.04 200.36,-717.57 141.62,-684 117.04,-669.95 98.42,-643.09 86.94,-622.53"/>
<polygon fill="black" stroke="black" points="90.08,-620.99 82.3,-613.8 83.9,-624.27 90.08,-620.99"/>
</g>
<!-- 24 -->
<g id="node25" class="node">
<title>24</title>
<polygon fill="none" stroke="black" points="706.75,-612 544.5,-612 544.5,-576 706.75,-576 706.75,-612"/>
<text text-anchor="middle" x="625.62" y="-589.33" font-family="Times,serif" font-size="14.00">pangalactic&#45;std&#45;store</text>
</g>
<!-- 3&#45;&gt;24 -->
<g id="edge3" class="edge">
<title>3&#45;&gt;24</title>
<path fill="none" stroke="black" d="M624.62,-719.63C639.78,-711.26 655.08,-699.59 663.62,-684 674.83,-663.55 662.71,-639.11 649.27,-621.02"/>
<polygon fill="black" stroke="black" points="652.15,-619.02 643.18,-613.38 646.68,-623.38 652.15,-619.02"/>
</g>
<!-- 4 -->
<g id="node5" class="node">
<title>4</title>
<polygon fill="none" stroke="black" points="1105.38,-180 961.88,-180 961.88,-144 1105.38,-144 1105.38,-180"/>
<text text-anchor="middle" x="1033.62" y="-157.32" font-family="Times,serif" font-size="14.00">pangalactic&#45;config</text>
</g>
<!-- 5 -->
<g id="node6" class="node">
<title>5</title>
<polygon fill="none" stroke="black" points="617.88,-252 423.38,-252 423.38,-216 617.88,-216 617.88,-252"/>
<text text-anchor="middle" x="520.62" y="-229.32" font-family="Times,serif" font-size="14.00">pangalactic&#45;layer&#45;cidmeta</text>
</g>
<!-- 8 -->
<g id="node9" class="node">
<title>8</title>
<polygon fill="none" stroke="black" points="682.25,-180 547,-180 547,-144 682.25,-144 682.25,-180"/>
<text text-anchor="middle" x="614.62" y="-157.32" font-family="Times,serif" font-size="14.00">pangalactic&#45;store</text>
</g>
<!-- 5&#45;&gt;8 -->
<g id="edge4" class="edge">
<title>5&#45;&gt;8</title>
<path fill="none" stroke="black" d="M543.86,-215.7C555.5,-207.03 569.77,-196.4 582.45,-186.96"/>
<polygon fill="black" stroke="black" points="584.19,-190.03 590.12,-181.25 580.01,-184.42 584.19,-190.03"/>
</g>
<!-- 6 -->
<g id="node7" class="node">
<title>6</title>
<polygon fill="none" stroke="black" points="797.62,-108 619.62,-108 619.62,-72 797.62,-72 797.62,-108"/>
<text text-anchor="middle" x="708.62" y="-85.33" font-family="Times,serif" font-size="14.00">pangalactic&#45;iowrappers</text>
</g>
<!-- 7 -->
<g id="node8" class="node">
<title>7</title>
<polygon fill="none" stroke="black" points="421.62,-108 237.62,-108 237.62,-72 421.62,-72 421.62,-108"/>
<text text-anchor="middle" x="329.62" y="-85.33" font-family="Times,serif" font-size="14.00">pangalactic&#45;serialization</text>
</g>
<!-- 7&#45;&gt;0 -->
<g id="edge5" class="edge">
<title>7&#45;&gt;0</title>
<path fill="none" stroke="black" d="M409.05,-71.52C458.97,-60.53 522.99,-46.44 572.14,-35.62"/>
<polygon fill="black" stroke="black" points="572.85,-39.04 581.87,-33.47 571.35,-32.21 572.85,-39.04"/>
</g>
<!-- 8&#45;&gt;1 -->
<g id="edge6" class="edge">
<title>8&#45;&gt;1</title>
<path fill="none" stroke="black" d="M591.39,-143.7C579.75,-135.03 565.48,-124.4 552.8,-114.96"/>
<polygon fill="black" stroke="black" points="555.24,-112.42 545.13,-109.25 551.06,-118.03 555.24,-112.42"/>
</g>
<!-- 8&#45;&gt;2 -->
<g id="edge7" class="edge">
<title>8&#45;&gt;2</title>
<path fill="none" stroke="black" d="M680.06,-143.52C718.08,-133.36 766.02,-120.55 805.04,-110.12"/>
<polygon fill="black" stroke="black" points="805.84,-113.54 814.6,-107.57 804.03,-106.77 805.84,-113.54"/>
</g>
<!-- 8&#45;&gt;6 -->
<g id="edge8" class="edge">
<title>8&#45;&gt;6</title>
<path fill="none" stroke="black" d="M637.86,-143.7C649.5,-135.03 663.77,-124.4 676.45,-114.96"/>
<polygon fill="black" stroke="black" points="678.19,-118.03 684.12,-109.25 674.01,-112.42 678.19,-118.03"/>
</g>
<!-- 8&#45;&gt;7 -->
<g id="edge9" class="edge">
<title>8&#45;&gt;7</title>
<path fill="none" stroke="black" d="M546.72,-144.32C506.21,-134.37 454.49,-121.67 411.69,-111.16"/>
<polygon fill="black" stroke="black" points="412.75,-107.81 402.2,-108.83 411.08,-114.61 412.75,-107.81"/>
</g>
<!-- 9&#45;&gt;4 -->
<g id="edge10" class="edge">
<title>9&#45;&gt;4</title>
<path fill="none" stroke="black" d="M654.67,-657.26C783.11,-641.75 1033.62,-601.45 1033.62,-523 1033.62,-523 1033.62,-523 1033.62,-305 1033.62,-265.74 1033.62,-220.38 1033.62,-191.69"/>
<polygon fill="black" stroke="black" points="1037.13,-192 1033.63,-182 1030.13,-192 1037.13,-192"/>
</g>
<!-- 22 -->
<g id="node23" class="node">
<title>22</title>
<polygon fill="none" stroke="black" points="516.5,-612 364.75,-612 364.75,-576 516.5,-576 516.5,-612"/>
<text text-anchor="middle" x="440.62" y="-589.33" font-family="Times,serif" font-size="14.00">pangalactic&#45;globset</text>
</g>
<!-- 9&#45;&gt;22 -->
<g id="edge11" class="edge">
<title>9&#45;&gt;22</title>
<path fill="none" stroke="black" d="M545.66,-647.52C527.4,-638.39 504.85,-627.11 485.33,-617.35"/>
<polygon fill="black" stroke="black" points="487.01,-614.28 476.5,-612.94 483.88,-620.54 487.01,-614.28"/>
</g>
<!-- 10 -->
<g id="node11" class="node">
<title>10</title>
<polygon fill="none" stroke="black" points="468.5,-396 280.75,-396 280.75,-360 468.5,-360 468.5,-396"/>
<text text-anchor="middle" x="374.62" y="-373.32" font-family="Times,serif" font-size="14.00">pangalactic&#45;dag&#45;transfer</text>
</g>
<!-- 11 -->
<g id="node12" class="node">
<title>11</title>
<polygon fill="none" stroke="black" points="421.5,-324 263.75,-324 263.75,-288 421.5,-288 421.5,-324"/>
<text text-anchor="middle" x="342.62" y="-301.32" font-family="Times,serif" font-size="14.00">pangalactic&#45;layer&#45;dir</text>
</g>
<!-- 10&#45;&gt;11 -->
<g id="edge12" class="edge">
<title>10&#45;&gt;11</title>
<path fill="none" stroke="black" d="M366.71,-359.7C363.23,-352.07 359.04,-342.92 355.15,-334.4"/>
<polygon fill="black" stroke="black" points="358.41,-333.12 351.07,-325.48 352.05,-336.03 358.41,-333.12"/>
</g>
<!-- 11&#45;&gt;5 -->
<g id="edge14" class="edge">
<title>11&#45;&gt;5</title>
<path fill="none" stroke="black" d="M387.08,-287.52C410.96,-278.13 440.6,-266.47 465.89,-256.53"/>
<polygon fill="black" stroke="black" points="466.99,-259.85 475.02,-252.94 464.43,-253.34 466.99,-259.85"/>
</g>
<!-- 12 -->
<g id="node13" class="node">
<title>12</title>
<polygon fill="none" stroke="black" points="261.38,-252 141.88,-252 141.88,-216 261.38,-216 261.38,-252"/>
<text text-anchor="middle" x="201.62" y="-229.32" font-family="Times,serif" font-size="14.00">pangalactic&#45;dir</text>
</g>
<!-- 11&#45;&gt;12 -->
<g id="edge13" class="edge">
<title>11&#45;&gt;12</title>
<path fill="none" stroke="black" d="M307.41,-287.52C289.02,-278.39 266.31,-267.11 246.65,-257.35"/>
<polygon fill="black" stroke="black" points="248.26,-254.25 237.75,-252.93 245.15,-260.52 248.26,-254.25"/>
</g>
<!-- 14 -->
<g id="node15" class="node">
<title>14</title>
<polygon fill="none" stroke="black" points="405.38,-252 279.88,-252 279.88,-216 405.38,-216 405.38,-252"/>
<text text-anchor="middle" x="342.62" y="-229.32" font-family="Times,serif" font-size="14.00">pangalactic&#45;link</text>
</g>
<!-- 11&#45;&gt;14 -->
<g id="edge15" class="edge">
<title>11&#45;&gt;14</title>
<path fill="none" stroke="black" d="M342.62,-287.7C342.62,-280.41 342.62,-271.73 342.62,-263.54"/>
<polygon fill="black" stroke="black" points="346.13,-263.62 342.63,-253.62 339.13,-263.62 346.13,-263.62"/>
</g>
<!-- 17 -->
<g id="node18" class="node">
<title>17</title>
<polygon fill="none" stroke="black" points="123.5,-252 1.75,-252 1.75,-216 123.5,-216 123.5,-252"/>
<text text-anchor="middle" x="62.62" y="-229.32" font-family="Times,serif" font-size="14.00">pangalactic&#45;log</text>
</g>
<!-- 11&#45;&gt;17 -->
<g id="edge16" class="edge">
<title>11&#45;&gt;17</title>
<path fill="none" stroke="black" d="M272.69,-287.52C230.61,-277 177.15,-263.63 134.7,-253.02"/>
<polygon fill="black" stroke="black" points="135.61,-249.64 125.06,-250.61 133.91,-256.43 135.61,-249.64"/>
</g>
<!-- 13 -->
<g id="node14" class="node">
<title>13</title>
<polygon fill="none" stroke="black" points="246.5,-180 106.75,-180 106.75,-144 246.5,-144 246.5,-180"/>
<text text-anchor="middle" x="176.62" y="-157.32" font-family="Times,serif" font-size="14.00">pangalactic&#45;name</text>
</g>
<!-- 12&#45;&gt;13 -->
<g id="edge17" class="edge">
<title>12&#45;&gt;13</title>
<path fill="none" stroke="black" d="M195.45,-215.7C192.75,-208.15 189.52,-199.12 186.51,-190.68"/>
<polygon fill="black" stroke="black" points="189.9,-189.77 183.24,-181.53 183.31,-192.12 189.9,-189.77"/>
</g>
<!-- 14&#45;&gt;8 -->
<g id="edge19" class="edge">
<title>14&#45;&gt;8</title>
<path fill="none" stroke="black" stroke-dasharray="1,5" d="M405.71,-216.76C444.38,-206.81 494.22,-193.99 535.52,-183.36"/>
<polygon fill="black" stroke="black" points="536.37,-186.75 545.18,-180.87 534.62,-179.97 536.37,-186.75"/>
</g>
<!-- 15 -->
<g id="node16" class="node">
<title>15</title>
<polygon fill="none" stroke="black" points="420.38,-180 264.88,-180 264.88,-144 420.38,-144 420.38,-180"/>
<text text-anchor="middle" x="342.62" y="-157.32" font-family="Times,serif" font-size="14.00">pangalactic&#45;linkkind</text>
</g>
<!-- 14&#45;&gt;15 -->
<g id="edge18" class="edge">
<title>14&#45;&gt;15</title>
<path fill="none" stroke="black" d="M342.62,-215.7C342.62,-208.41 342.62,-199.73 342.62,-191.54"/>
<polygon fill="black" stroke="black" points="346.13,-191.62 342.63,-181.62 339.13,-191.62 346.13,-191.62"/>
</g>
<!-- 16 -->
<g id="node17" class="node">
<title>16</title>
<polygon fill="none" stroke="black" points="219.5,-108 49.75,-108 49.75,-72 219.5,-72 219.5,-108"/>
<text text-anchor="middle" x="134.62" y="-85.33" font-family="Times,serif" font-size="14.00">pangalactic&#45;primitives</text>
</g>
<!-- 15&#45;&gt;16 -->
<g id="edge20" class="edge">
<title>15&#45;&gt;16</title>
<path fill="none" stroke="black" d="M290.67,-143.52C262.27,-133.96 226.9,-122.05 197.01,-112"/>
<polygon fill="black" stroke="black" points="198.3,-108.74 187.71,-108.86 196.07,-115.37 198.3,-108.74"/>
</g>
<!-- 18 -->
<g id="node19" class="node">
<title>18</title>
<polygon fill="none" stroke="black" points="943.88,-180 809.38,-180 809.38,-144 943.88,-144 943.88,-180"/>
<text text-anchor="middle" x="876.62" y="-157.32" font-family="Times,serif" font-size="14.00">pangalactic&#45;hash</text>
</g>
<!-- 18&#45;&gt;0 -->
<g id="edge21" class="edge">
<title>18&#45;&gt;0</title>
<path fill="none" stroke="black" d="M911.68,-143.6C925.19,-134.91 939.16,-123.01 946.62,-108 953.75,-93.67 956.9,-84.26 946.62,-72 918.66,-38.64 802.37,-26.27 723.33,-21.68"/>
<polygon fill="black" stroke="black" points="723.64,-18.2 713.47,-21.15 723.26,-25.19 723.64,-18.2"/>
</g>
<!-- 18&#45;&gt;2 -->
<g id="edge22" class="edge">
<title>18&#45;&gt;2</title>
<path fill="none" stroke="black" d="M876.62,-143.7C876.62,-136.41 876.62,-127.73 876.62,-119.54"/>
<polygon fill="black" stroke="black" points="880.13,-119.62 876.63,-109.62 873.13,-119.62 880.13,-119.62"/>
</g>
<!-- 19 -->
<g id="node20" class="node">
<title>19</title>
<polygon fill="none" stroke="black" points="811.5,-252 635.75,-252 635.75,-216 811.5,-216 811.5,-252"/>
<text text-anchor="middle" x="723.62" y="-229.32" font-family="Times,serif" font-size="14.00">pangalactic&#45;store&#45;mem</text>
</g>
<!-- 19&#45;&gt;8 -->
<g id="edge24" class="edge">
<title>19&#45;&gt;8</title>
<path fill="none" stroke="black" d="M696.4,-215.52C682.64,-206.68 665.76,-195.84 650.91,-186.3"/>
<polygon fill="black" stroke="black" points="653.08,-183.54 642.78,-181.08 649.3,-189.43 653.08,-183.54"/>
</g>
<!-- 19&#45;&gt;18 -->
<g id="edge23" class="edge">
<title>19&#45;&gt;18</title>
<path fill="none" stroke="black" d="M761.84,-215.52C782,-206.29 806.93,-194.89 828.41,-185.06"/>
<polygon fill="black" stroke="black" points="829.62,-188.35 837.26,-181.01 826.71,-181.99 829.62,-188.35"/>
</g>
<!-- 20 -->
<g id="node21" class="node">
<title>20</title>
<polygon fill="none" stroke="black" points="521.75,-540 359.5,-540 359.5,-504 521.75,-504 521.75,-540"/>
<text text-anchor="middle" x="440.62" y="-517.33" font-family="Times,serif" font-size="14.00">pangalactic&#45;endpoint</text>
</g>
<!-- 21 -->
<g id="node22" class="node">
<title>21</title>
<polygon fill="none" stroke="black" points="394.12,-468 237.12,-468 237.12,-432 394.12,-432 394.12,-468"/>
<text text-anchor="middle" x="315.62" y="-445.32" font-family="Times,serif" font-size="14.00">pangalactic&#45;linkpath</text>
</g>
<!-- 20&#45;&gt;21 -->
<g id="edge25" class="edge">
<title>20&#45;&gt;21</title>
<path fill="none" stroke="black" d="M409.4,-503.52C393.33,-494.51 373.52,-483.42 356.27,-473.76"/>
<polygon fill="black" stroke="black" points="358.2,-470.83 347.77,-469 354.78,-476.94 358.2,-470.83"/>
</g>
<!-- 21&#45;&gt;10 -->
<g id="edge26" class="edge">
<title>21&#45;&gt;10</title>
<path fill="none" stroke="black" d="M330.21,-431.7C337.07,-423.56 345.39,-413.69 352.96,-404.7"/>
<polygon fill="black" stroke="black" points="355.46,-407.16 359.23,-397.26 350.11,-402.65 355.46,-407.16"/>
</g>
<!-- 22&#45;&gt;20 -->
<g id="edge27" class="edge">
<title>22&#45;&gt;20</title>
<path fill="none" stroke="black" d="M440.62,-575.7C440.62,-568.41 440.62,-559.73 440.62,-551.54"/>
<polygon fill="black" stroke="black" points="444.13,-551.62 440.63,-541.62 437.13,-551.62 444.13,-551.62"/>
</g>
<!-- 23&#45;&gt;17 -->
<g id="edge28" class="edge">
<title>23&#45;&gt;17</title>
<path fill="none" stroke="black" d="M71.4,-575.55C68.18,-548.79 62.62,-496 62.62,-451 62.62,-451 62.62,-451 62.62,-377 62.62,-337.74 62.62,-292.38 62.62,-263.69"/>
<polygon fill="black" stroke="black" points="66.13,-264 62.63,-254 59.13,-264 66.13,-264"/>
</g>
<!-- 24&#45;&gt;19 -->
<g id="edge32" class="edge">
<title>24&#45;&gt;19</title>
<path fill="none" stroke="black" d="M661.26,-575.61C701.85,-553 762.62,-509.41 762.62,-451 762.62,-451 762.62,-451 762.62,-377 762.62,-335.92 747.26,-290.47 735.82,-262.32"/>
<polygon fill="black" stroke="black" points="739.2,-261.33 732.1,-253.47 732.75,-264.04 739.2,-261.33"/>
</g>
<!-- 24&#45;&gt;20 -->
<g id="edge29" class="edge">
<title>24&#45;&gt;20</title>
<path fill="none" stroke="black" d="M579.42,-575.52C554.49,-566.08 523.52,-554.37 497.17,-544.39"/>
<polygon fill="black" stroke="black" points="498.57,-541.18 487.98,-540.92 496.09,-547.73 498.57,-541.18"/>
</g>
<!-- 25 -->
<g id="node26" class="node">
<title>25</title>
<polygon fill="none" stroke="black" points="691,-540 560.25,-540 560.25,-504 691,-504 691,-540"/>
<text text-anchor="middle" x="625.62" y="-517.33" font-family="Times,serif" font-size="14.00">pangalactic&#45;host</text>
</g>
<!-- 24&#45;&gt;25 -->
<g id="edge30" class="edge">
<title>24&#45;&gt;25</title>
<path fill="none" stroke="black" d="M625.62,-575.7C625.62,-568.41 625.62,-559.73 625.62,-551.54"/>
<polygon fill="black" stroke="black" points="629.13,-551.62 625.63,-541.62 622.13,-551.62 629.13,-551.62"/>
</g>
<!-- 29 -->
<g id="node30" class="node">
<title>29</title>
<polygon fill="none" stroke="black" points="1005.88,-252 829.38,-252 829.38,-216 1005.88,-216 1005.88,-252"/>
<text text-anchor="middle" x="917.62" y="-229.32" font-family="Times,serif" font-size="14.00">pangalactic&#45;store&#45;dirdb</text>
</g>
<!-- 24&#45;&gt;29 -->
<g id="edge31" class="edge">
<title>24&#45;&gt;29</title>
<path fill="none" stroke="black" d="M707.14,-578.27C774.67,-560.82 859.62,-524.3 859.62,-451 859.62,-451 859.62,-451 859.62,-377 859.62,-334.5 882.17,-289.79 899.15,-262.16"/>
<polygon fill="black" stroke="black" points="902.1,-264.03 904.51,-253.72 896.19,-260.28 902.1,-264.03"/>
</g>
<!-- 27 -->
<g id="node28" class="node">
<title>27</title>
<polygon fill="none" stroke="black" points="580.75,-468 412.5,-468 412.5,-432 580.75,-432 580.75,-468"/>
<text text-anchor="middle" x="496.62" y="-445.32" font-family="Times,serif" font-size="14.00">pangalactic&#45;schemata</text>
</g>
<!-- 25&#45;&gt;27 -->
<g id="edge33" class="edge">
<title>25&#45;&gt;27</title>
<path fill="none" stroke="black" d="M593.41,-503.52C576.73,-494.47 556.19,-483.32 538.32,-473.62"/>
<polygon fill="black" stroke="black" points="540.22,-470.68 529.76,-468.98 536.88,-476.83 540.22,-470.68"/>
</g>
<!-- 28 -->
<g id="node29" class="node">
<title>28</title>
<polygon fill="none" stroke="black" points="734.25,-468 599,-468 599,-432 734.25,-432 734.25,-468"/>
<text text-anchor="middle" x="666.62" y="-445.32" font-family="Times,serif" font-size="14.00">pangalactic&#45;table</text>
</g>
<!-- 25&#45;&gt;28 -->
<g id="edge34" class="edge">
<title>25&#45;&gt;28</title>
<path fill="none" stroke="black" d="M635.76,-503.7C640.33,-495.9 645.83,-486.51 650.91,-477.83"/>
<polygon fill="black" stroke="black" points="653.81,-479.81 655.84,-469.41 647.77,-476.27 653.81,-479.81"/>
</g>
<!-- 26 -->
<g id="node27" class="node">
<title>26</title>
<polygon fill="none" stroke="black" points="734.62,-396 586.62,-396 586.62,-360 734.62,-360 734.62,-396"/>
<text text-anchor="middle" x="660.62" y="-373.32" font-family="Times,serif" font-size="14.00">pangalactic&#45;handle</text>
</g>
<!-- 27&#45;&gt;11 -->
<g id="edge35" class="edge">
<title>27&#45;&gt;11</title>
<path fill="none" stroke="black" stroke-dasharray="1,5" d="M497.52,-431.5C497.58,-411.86 494.69,-380.12 477.62,-360 465.57,-345.8 449.22,-335.37 432.04,-327.74"/>
<polygon fill="black" stroke="black" points="433.84,-324.69 423.26,-324.13 431.18,-331.17 433.84,-324.69"/>
</g>
<!-- 28&#45;&gt;26 -->
<g id="edge36" class="edge">
<title>28&#45;&gt;26</title>
<path fill="none" stroke="black" d="M665.14,-431.7C664.52,-424.41 663.77,-415.73 663.07,-407.54"/>
<polygon fill="black" stroke="black" points="666.56,-407.28 662.22,-397.61 659.59,-407.87 666.56,-407.28"/>
</g>
<!-- 29&#45;&gt;4 -->
<g id="edge37" class="edge">
<title>29&#45;&gt;4</title>
<path fill="none" stroke="black" d="M946.6,-215.52C961.38,-206.6 979.55,-195.63 995.46,-186.03"/>
<polygon fill="black" stroke="black" points="996.97,-189.21 1003.73,-181.04 993.36,-183.21 996.97,-189.21"/>
</g>
<!-- 29&#45;&gt;8 -->
<g id="edge39" class="edge">
<title>29&#45;&gt;8</title>
<path fill="none" stroke="black" d="M841.95,-215.52C796.77,-205.08 739.47,-191.84 693.7,-181.27"/>
<polygon fill="black" stroke="black" points="694.63,-177.89 684.1,-179.05 693.06,-184.71 694.63,-177.89"/>
</g>
<!-- 29&#45;&gt;18 -->
<g id="edge38" class="edge">
<title>29&#45;&gt;18</title>
<path fill="none" stroke="black" d="M907.49,-215.7C902.92,-207.9 897.42,-198.51 892.34,-189.83"/>
<polygon fill="black" stroke="black" points="895.48,-188.27 887.41,-181.41 889.44,-191.81 895.48,-188.27"/>
</g>
<!-- 30 -->
<g id="node31" class="node">
<title>30</title>
<polygon fill="none" stroke="black" points="488.88,-684 324.38,-684 324.38,-648 488.88,-648 488.88,-684"/>
<text text-anchor="middle" x="406.62" y="-661.33" font-family="Times,serif" font-size="14.00">pangalactic&#45;cli&#45;derive</text>
</g>
<!-- 30&#45;&gt;23 -->
<g id="edge40" class="edge">
<title>30&#45;&gt;23</title>
<path fill="none" stroke="black" d="M323.88,-647.61C273.65,-637.05 209.67,-623.6 158.97,-612.94"/>
<polygon fill="black" stroke="black" points="159.7,-609.52 149.19,-610.88 158.26,-616.37 159.7,-609.52"/>
</g>
<!-- 30&#45;&gt;24 -->
<g id="edge41" class="edge">
<title>30&#45;&gt;24</title>
<path fill="none" stroke="black" d="M461.32,-647.52C491.36,-637.92 528.8,-625.95 560.35,-615.86"/>
<polygon fill="black" stroke="black" points="561.34,-619.22 569.8,-612.84 559.21,-612.55 561.34,-619.22"/>
</g>
<!-- 31 -->
<g id="node32" class="node">
<title>31</title>
<polygon fill="none" stroke="black" points="306.38,-684 150.88,-684 150.88,-648 306.38,-648 306.38,-684"/>
<text text-anchor="middle" x="228.62" y="-661.33" font-family="Times,serif" font-size="14.00">pangalactic&#45;cli&#45;store</text>
</g>
<!-- 31&#45;&gt;22 -->
<g id="edge42" class="edge">
<title>31&#45;&gt;22</title>
<path fill="none" stroke="black" d="M281.57,-647.52C310.65,-637.92 346.89,-625.95 377.44,-615.86"/>
<polygon fill="black" stroke="black" points="378.15,-619.32 386.55,-612.86 375.95,-612.67 378.15,-619.32"/>
</g>
<!-- 31&#45;&gt;23 -->
<g id="edge44" class="edge">
<title>31&#45;&gt;23</title>
<path fill="none" stroke="black" d="M189.91,-647.52C169.49,-638.29 144.23,-626.89 122.47,-617.06"/>
<polygon fill="black" stroke="black" points="124.05,-613.93 113.49,-613 121.17,-620.31 124.05,-613.93"/>
</g>
<!-- 31&#45;&gt;24 -->
<g id="edge45" class="edge">
<title>31&#45;&gt;24</title>
<path fill="none" stroke="black" d="M306.86,-649.62C309.82,-649.07 312.75,-648.53 315.62,-648 326.4,-646.03 445.47,-625.7 532.83,-610.81"/>
<polygon fill="black" stroke="black" points="533.37,-614.27 542.64,-609.14 532.19,-607.37 533.37,-614.27"/>
</g>
<!-- 32 -->
<g id="node33" class="node">
<title>32</title>
<polygon fill="none" stroke="black" points="326.38,-612 164.88,-612 164.88,-576 326.38,-576 326.38,-612"/>
<text text-anchor="middle" x="245.62" y="-589.33" font-family="Times,serif" font-size="14.00">pangalactic&#45;manifest</text>
</g>
<!-- 31&#45;&gt;32 -->
<g id="edge43" class="edge">
<title>31&#45;&gt;32</title>
<path fill="none" stroke="black" d="M232.83,-647.7C234.62,-640.32 236.75,-631.52 238.76,-623.25"/>
<polygon fill="black" stroke="black" points="242.15,-624.12 241.11,-613.58 235.35,-622.47 242.15,-624.12"/>
</g>
<!-- 33 -->
<g id="node34" class="node">
<title>33</title>
<polygon fill="none" stroke="black" points="262.62,-396 90.62,-396 90.62,-360 262.62,-360 262.62,-396"/>
<text text-anchor="middle" x="176.62" y="-373.32" font-family="Times,serif" font-size="14.00">pangalactic&#45;nested&#45;dir</text>
</g>
<!-- 32&#45;&gt;33 -->
<g id="edge46" class="edge">
<title>32&#45;&gt;33</title>
<path fill="none" stroke="black" d="M240.1,-575.85C228.21,-538.99 200.14,-451.92 185.64,-406.96"/>
<polygon fill="black" stroke="black" points="189.05,-406.12 182.65,-397.67 182.38,-408.26 189.05,-406.12"/>
</g>
<!-- 33&#45;&gt;11 -->
<g id="edge47" class="edge">
<title>33&#45;&gt;11</title>
<path fill="none" stroke="black" d="M218.09,-359.52C240.15,-350.21 267.5,-338.68 290.94,-328.79"/>
<polygon fill="black" stroke="black" points="292.16,-332.08 300.01,-324.97 289.44,-325.63 292.16,-332.08"/>
</g>
</g>
</svg>
