<?xml version="1.0" encoding="UTF-8" standalone="no"?>
<!DOCTYPE svg PUBLIC "-//W3C//DTD SVG 1.1//EN"
 "http://www.w3.org/Graphics/SVG/1.1/DTD/svg11.dtd">
<!-- Generated by graphviz version 12.2.1 (0)
 -->
<!-- Pages: 1 -->
<svg width="1103pt" height="836pt"
 viewBox="0.00 0.00 1103.41 836.00" xmlns="http://www.w3.org/2000/svg" xmlns:xlink="http://www.w3.org/1999/xlink">
<g id="graph0" class="graph" transform="scale(1 1) rotate(0) translate(4 832)">
<polygon fill="white" stroke="none" points="-4,4 -4,-832 1099.41,-832 1099.41,4 -4,4"/>
<!-- 0 -->
<g id="node1" class="node">
<title>0</title>
<polygon fill="none" stroke="black" points="190.09,-36 62.34,-36 62.34,0 190.09,0 190.09,-36"/>
<text text-anchor="middle" x="126.21" y="-13.32" font-family="Times,serif" font-size="14.00">pangalactic&#45;b64</text>
</g>
<!-- 1 -->
<g id="node2" class="node">
<title>1</title>
<polygon fill="none" stroke="black" points="528.34,-108 366.09,-108 366.09,-72 528.34,-72 528.34,-108"/>
<text text-anchor="middle" x="447.21" y="-85.33" font-family="Times,serif" font-size="14.00">pangalactic&#45;chomper</text>
</g>
<!-- 2 -->
<g id="node3" class="node">
<title>2</title>
<polygon fill="none" stroke="black" points="145.71,-108 24.71,-108 24.71,-72 145.71,-72 145.71,-108"/>
<text text-anchor="middle" x="85.21" y="-85.33" font-family="Times,serif" font-size="14.00">pangalactic&#45;cid</text>
</g>
<!-- 3 -->
<g id="node4" class="node">
<title>3</title>
<polygon fill="none" stroke="black" points="546.09,-828 430.34,-828 430.34,-792 546.09,-792 546.09,-828"/>
<text text-anchor="middle" x="488.21" y="-805.33" font-family="Times,serif" font-size="14.00">pangalactic&#45;cli</text>
</g>
<!-- 4 -->
<g id="node5" class="node">
<title>4</title>
<polygon fill="none" stroke="black" points="403.46,-684 238.96,-684 238.96,-648 403.46,-648 403.46,-684"/>
<text text-anchor="middle" x="321.21" y="-661.33" font-family="Times,serif" font-size="14.00">pangalactic&#45;cli&#45;derive</text>
</g>
<!-- 3&#45;&gt;4 -->
<g id="edge1" class="edge">
<title>3&#45;&gt;4</title>
<path fill="none" stroke="black" d="M429.87,-802.18C398.61,-795.49 361.97,-782.24 339.21,-756 324.91,-739.51 320.82,-714.82 320.07,-695.62"/>
<polygon fill="black" stroke="black" points="323.57,-695.71 319.99,-685.74 316.57,-695.77 323.57,-695.71"/>
</g>
<!-- 29 -->
<g id="node30" class="node">
<title>29</title>
<polygon fill="none" stroke="black" points="515.96,-756 348.46,-756 348.46,-720 515.96,-720 515.96,-756"/>
<text text-anchor="middle" x="432.21" y="-733.33" font-family="Times,serif" font-size="14.00">pangalactic&#45;cli&#45;revcon</text>
</g>
<!-- 3&#45;&gt;29 -->
<g id="edge2" class="edge">
<title>3&#45;&gt;29</title>
<path fill="none" stroke="black" d="M474.37,-791.7C467.93,-783.64 460.13,-773.89 453,-764.98"/>
<polygon fill="black" stroke="black" points="455.82,-762.91 446.84,-757.29 450.36,-767.28 455.82,-762.91"/>
</g>
<!-- 33 -->
<g id="node34" class="node">
<title>33</title>
<polygon fill="none" stroke="black" points="613.21,-684 459.21,-684 459.21,-648 613.21,-648 613.21,-684"/>
<text text-anchor="middle" x="536.21" y="-661.33" font-family="Times,serif" font-size="14.00">pangalactic&#45;cli&#45;seed</text>
</g>
<!-- 3&#45;&gt;33 -->
<g id="edge3" class="edge">
<title>3&#45;&gt;33</title>
<path fill="none" stroke="black" d="M503.61,-791.62C511.39,-781.83 520.23,-768.99 525.21,-756 532.6,-736.75 535.28,-713.6 536.16,-695.73"/>
<polygon fill="black" stroke="black" points="539.65,-695.94 536.46,-685.83 532.66,-695.72 539.65,-695.94"/>
</g>
<!-- 38 -->
<g id="node39" class="node">
<title>38</title>
<polygon fill="none" stroke="black" points="786.96,-684 631.46,-684 631.46,-648 786.96,-648 786.96,-684"/>
<text text-anchor="middle" x="709.21" y="-661.33" font-family="Times,serif" font-size="14.00">pangalactic&#45;cli&#45;store</text>
</g>
<!-- 3&#45;&gt;38 -->
<g id="edge4" class="edge">
<title>3&#45;&gt;38</title>
<path fill="none" stroke="black" d="M515.31,-791.59C554.85,-766.18 628.46,-718.89 672.73,-690.44"/>
<polygon fill="black" stroke="black" points="674.44,-693.5 680.97,-685.15 670.66,-687.61 674.44,-693.5"/>
</g>
<!-- 21 -->
<g id="node22" class="node">
<title>21</title>
<polygon fill="none" stroke="black" points="331.84,-612 184.59,-612 184.59,-576 331.84,-576 331.84,-612"/>
<text text-anchor="middle" x="258.21" y="-589.33" font-family="Times,serif" font-size="14.00">pangalactic&#45;runopt</text>
</g>
<!-- 4&#45;&gt;21 -->
<g id="edge5" class="edge">
<title>4&#45;&gt;21</title>
<path fill="none" stroke="black" d="M305.64,-647.7C298.24,-639.47 289.25,-629.48 281.09,-620.42"/>
<polygon fill="black" stroke="black" points="283.91,-618.32 274.62,-613.23 278.71,-623 283.91,-618.32"/>
</g>
<!-- 23 -->
<g id="node24" class="node">
<title>23</title>
<polygon fill="none" stroke="black" points="512.34,-612 350.09,-612 350.09,-576 512.34,-576 512.34,-612"/>
<text text-anchor="middle" x="431.21" y="-589.33" font-family="Times,serif" font-size="14.00">pangalactic&#45;std&#45;store</text>
</g>
<!-- 4&#45;&gt;23 -->
<g id="edge6" class="edge">
<title>4&#45;&gt;23</title>
<path fill="none" stroke="black" d="M348.69,-647.52C362.57,-638.68 379.61,-627.84 394.59,-618.3"/>
<polygon fill="black" stroke="black" points="396.25,-621.39 402.81,-613.07 392.5,-615.49 396.25,-621.39"/>
</g>
<!-- 5 -->
<g id="node6" class="node">
<title>5</title>
<polygon fill="none" stroke="black" points="1022.34,-540 860.09,-540 860.09,-504 1022.34,-504 1022.34,-540"/>
<text text-anchor="middle" x="941.21" y="-517.33" font-family="Times,serif" font-size="14.00">pangalactic&#45;endpoint</text>
</g>
<!-- 20 -->
<g id="node21" class="node">
<title>20</title>
<polygon fill="none" stroke="black" points="1035.71,-468 878.71,-468 878.71,-432 1035.71,-432 1035.71,-468"/>
<text text-anchor="middle" x="957.21" y="-445.32" font-family="Times,serif" font-size="14.00">pangalactic&#45;linkpath</text>
</g>
<!-- 5&#45;&gt;20 -->
<g id="edge7" class="edge">
<title>5&#45;&gt;20</title>
<path fill="none" stroke="black" d="M945.17,-503.7C946.85,-496.32 948.86,-487.52 950.76,-479.25"/>
<polygon fill="black" stroke="black" points="954.15,-480.11 952.97,-469.58 947.33,-478.55 954.15,-480.11"/>
</g>
<!-- 6 -->
<g id="node7" class="node">
<title>6</title>
<polygon fill="none" stroke="black" points="1059.09,-396 871.34,-396 871.34,-360 1059.09,-360 1059.09,-396"/>
<text text-anchor="middle" x="965.21" y="-373.32" font-family="Times,serif" font-size="14.00">pangalactic&#45;dag&#45;transfer</text>
</g>
<!-- 8 -->
<g id="node9" class="node">
<title>8</title>
<polygon fill="none" stroke="black" points="851.09,-324 693.34,-324 693.34,-288 851.09,-288 851.09,-324"/>
<text text-anchor="middle" x="772.21" y="-301.32" font-family="Times,serif" font-size="14.00">pangalactic&#45;layer&#45;dir</text>
</g>
<!-- 6&#45;&gt;8 -->
<g id="edge8" class="edge">
<title>6&#45;&gt;8</title>
<path fill="none" stroke="black" d="M917.01,-359.52C890.89,-350.04 858.41,-338.26 830.83,-328.26"/>
<polygon fill="black" stroke="black" points="832.15,-325.02 821.56,-324.9 829.77,-331.6 832.15,-325.02"/>
</g>
<!-- 7 -->
<g id="node8" class="node">
<title>7</title>
<polygon fill="none" stroke="black" points="724.21,-108 546.21,-108 546.21,-72 724.21,-72 724.21,-108"/>
<text text-anchor="middle" x="635.21" y="-85.33" font-family="Times,serif" font-size="14.00">pangalactic&#45;iowrappers</text>
</g>
<!-- 9 -->
<g id="node10" class="node">
<title>9</title>
<polygon fill="none" stroke="black" points="1030.96,-252 911.46,-252 911.46,-216 1030.96,-216 1030.96,-252"/>
<text text-anchor="middle" x="971.21" y="-229.32" font-family="Times,serif" font-size="14.00">pangalactic&#45;dir</text>
</g>
<!-- 8&#45;&gt;9 -->
<g id="edge9" class="edge">
<title>8&#45;&gt;9</title>
<path fill="none" stroke="black" d="M821.92,-287.52C848.97,-278 882.64,-266.16 911.15,-256.13"/>
<polygon fill="black" stroke="black" points="912.1,-259.5 920.37,-252.88 909.78,-252.9 912.1,-259.5"/>
</g>
<!-- 11 -->
<g id="node12" class="node">
<title>11</title>
<polygon fill="none" stroke="black" points="736.46,-252 541.96,-252 541.96,-216 736.46,-216 736.46,-252"/>
<text text-anchor="middle" x="639.21" y="-229.32" font-family="Times,serif" font-size="14.00">pangalactic&#45;layer&#45;cidmeta</text>
</g>
<!-- 8&#45;&gt;11 -->
<g id="edge10" class="edge">
<title>8&#45;&gt;11</title>
<path fill="none" stroke="black" d="M738.99,-287.52C721.73,-278.43 700.42,-267.22 681.94,-257.49"/>
<polygon fill="black" stroke="black" points="683.83,-254.53 673.35,-252.97 680.57,-260.72 683.83,-254.53"/>
</g>
<!-- 14 -->
<g id="node15" class="node">
<title>14</title>
<polygon fill="none" stroke="black" points="879.96,-252 754.46,-252 754.46,-216 879.96,-216 879.96,-252"/>
<text text-anchor="middle" x="817.21" y="-229.32" font-family="Times,serif" font-size="14.00">pangalactic&#45;link</text>
</g>
<!-- 8&#45;&gt;14 -->
<g id="edge11" class="edge">
<title>8&#45;&gt;14</title>
<path fill="none" stroke="black" d="M783.34,-287.7C788.4,-279.81 794.52,-270.3 800.15,-261.55"/>
<polygon fill="black" stroke="black" points="802.94,-263.68 805.4,-253.38 797.05,-259.9 802.94,-263.68"/>
</g>
<!-- 17 -->
<g id="node18" class="node">
<title>17</title>
<polygon fill="none" stroke="black" points="524.09,-252 402.34,-252 402.34,-216 524.09,-216 524.09,-252"/>
<text text-anchor="middle" x="463.21" y="-229.32" font-family="Times,serif" font-size="14.00">pangalactic&#45;log</text>
</g>
<!-- 8&#45;&gt;17 -->
<g id="edge12" class="edge">
<title>8&#45;&gt;17</title>
<path fill="none" stroke="black" d="M693,-287.85C649.15,-278.26 593.4,-265.91 535.18,-252.43"/>
<polygon fill="black" stroke="black" points="536.29,-249.1 525.75,-250.25 534.7,-255.92 536.29,-249.1"/>
</g>
<!-- 10 -->
<g id="node11" class="node">
<title>10</title>
<polygon fill="none" stroke="black" points="1053.09,-180 913.34,-180 913.34,-144 1053.09,-144 1053.09,-180"/>
<text text-anchor="middle" x="983.21" y="-157.32" font-family="Times,serif" font-size="14.00">pangalactic&#45;name</text>
</g>
<!-- 9&#45;&gt;10 -->
<g id="edge13" class="edge">
<title>9&#45;&gt;10</title>
<path fill="none" stroke="black" d="M974.18,-215.7C975.44,-208.32 976.95,-199.52 978.37,-191.25"/>
<polygon fill="black" stroke="black" points="981.79,-192.04 980.03,-181.6 974.89,-190.86 981.79,-192.04"/>
</g>
<!-- 13 -->
<g id="node14" class="node">
<title>13</title>
<polygon fill="none" stroke="black" points="497.84,-180 362.59,-180 362.59,-144 497.84,-144 497.84,-180"/>
<text text-anchor="middle" x="430.21" y="-157.32" font-family="Times,serif" font-size="14.00">pangalactic&#45;store</text>
</g>
<!-- 11&#45;&gt;13 -->
<g id="edge14" class="edge">
<title>11&#45;&gt;13</title>
<path fill="none" stroke="black" d="M587.01,-215.52C558.48,-205.96 522.93,-194.05 492.9,-184"/>
<polygon fill="black" stroke="black" points="494.14,-180.72 483.55,-180.86 491.92,-187.36 494.14,-180.72"/>
</g>
<!-- 12 -->
<g id="node13" class="node">
<title>12</title>
<polygon fill="none" stroke="black" points="348.21,-108 164.21,-108 164.21,-72 348.21,-72 348.21,-108"/>
<text text-anchor="middle" x="256.21" y="-85.33" font-family="Times,serif" font-size="14.00">pangalactic&#45;serialization</text>
</g>
<!-- 12&#45;&gt;0 -->
<g id="edge15" class="edge">
<title>12&#45;&gt;0</title>
<path fill="none" stroke="black" d="M223.74,-71.52C206.94,-62.47 186.24,-51.32 168.23,-41.62"/>
<polygon fill="black" stroke="black" points="170.07,-38.64 159.6,-36.98 166.75,-44.8 170.07,-38.64"/>
</g>
<!-- 13&#45;&gt;1 -->
<g id="edge16" class="edge">
<title>13&#45;&gt;1</title>
<path fill="none" stroke="black" d="M434.42,-143.7C436.21,-136.32 438.34,-127.52 440.35,-119.25"/>
<polygon fill="black" stroke="black" points="443.74,-120.12 442.7,-109.58 436.94,-118.47 443.74,-120.12"/>
</g>
<!-- 13&#45;&gt;2 -->
<g id="edge17" class="edge">
<title>13&#45;&gt;2</title>
<path fill="none" stroke="black" d="M362.22,-148.83C309.07,-139.11 233.06,-124.73 157.08,-108.35"/>
<polygon fill="black" stroke="black" points="157.87,-104.94 147.36,-106.24 156.39,-111.78 157.87,-104.94"/>
</g>
<!-- 13&#45;&gt;7 -->
<g id="edge18" class="edge">
<title>13&#45;&gt;7</title>
<path fill="none" stroke="black" d="M481.41,-143.52C509.4,-133.96 544.27,-122.05 573.73,-112"/>
<polygon fill="black" stroke="black" points="574.54,-115.41 582.88,-108.87 572.28,-108.79 574.54,-115.41"/>
</g>
<!-- 13&#45;&gt;12 -->
<g id="edge19" class="edge">
<title>13&#45;&gt;12</title>
<path fill="none" stroke="black" d="M386.75,-143.52C363.52,-134.17 334.7,-122.57 310.05,-112.66"/>
<polygon fill="black" stroke="black" points="311.41,-109.43 300.82,-108.95 308.79,-115.93 311.41,-109.43"/>
</g>
<!-- 14&#45;&gt;13 -->
<g id="edge21" class="edge">
<title>14&#45;&gt;13</title>
<path fill="none" stroke="black" stroke-dasharray="1,5" d="M754.05,-217.84C751.07,-217.2 748.11,-216.58 745.21,-216 665.22,-199.84 573.1,-184.75 509.23,-174.83"/>
<polygon fill="black" stroke="black" points="509.95,-171.4 499.54,-173.33 508.88,-178.32 509.95,-171.4"/>
</g>
<!-- 15 -->
<g id="node16" class="node">
<title>15</title>
<polygon fill="none" stroke="black" points="894.96,-180 739.46,-180 739.46,-144 894.96,-144 894.96,-180"/>
<text text-anchor="middle" x="817.21" y="-157.32" font-family="Times,serif" font-size="14.00">pangalactic&#45;linkkind</text>
</g>
<!-- 14&#45;&gt;15 -->
<g id="edge20" class="edge">
<title>14&#45;&gt;15</title>
<path fill="none" stroke="black" d="M817.21,-215.7C817.21,-208.41 817.21,-199.73 817.21,-191.54"/>
<polygon fill="black" stroke="black" points="820.71,-191.62 817.21,-181.62 813.71,-191.62 820.71,-191.62"/>
</g>
<!-- 16 -->
<g id="node17" class="node">
<title>16</title>
<polygon fill="none" stroke="black" points="912.09,-108 742.34,-108 742.34,-72 912.09,-72 912.09,-108"/>
<text text-anchor="middle" x="827.21" y="-85.33" font-family="Times,serif" font-size="14.00">pangalactic&#45;primitives</text>
</g>
<!-- 15&#45;&gt;16 -->
<g id="edge22" class="edge">
<title>15&#45;&gt;16</title>
<path fill="none" stroke="black" d="M819.69,-143.7C820.74,-136.32 822,-127.52 823.18,-119.25"/>
<polygon fill="black" stroke="black" points="826.61,-120 824.56,-109.6 819.68,-119.01 826.61,-120"/>
</g>
<!-- 18 -->
<g id="node19" class="node">
<title>18</title>
<polygon fill="none" stroke="black" points="152.46,-324 17.96,-324 17.96,-288 152.46,-288 152.46,-324"/>
<text text-anchor="middle" x="85.21" y="-301.32" font-family="Times,serif" font-size="14.00">pangalactic&#45;hash</text>
</g>
<!-- 18&#45;&gt;0 -->
<g id="edge23" class="edge">
<title>18&#45;&gt;0</title>
<path fill="none" stroke="black" d="M70.87,-287.6C39.25,-247 -30.19,-143.99 15.21,-72 23.91,-58.2 37.3,-47.92 51.81,-40.29"/>
<polygon fill="black" stroke="black" points="53.11,-43.54 60.62,-36.07 50.09,-37.23 53.11,-43.54"/>
</g>
<!-- 18&#45;&gt;2 -->
<g id="edge24" class="edge">
<title>18&#45;&gt;2</title>
<path fill="none" stroke="black" d="M85.21,-287.85C85.21,-251.14 85.21,-164.66 85.21,-119.53"/>
<polygon fill="black" stroke="black" points="88.71,-119.75 85.21,-109.75 81.71,-119.75 88.71,-119.75"/>
</g>
<!-- 19 -->
<g id="node20" class="node">
<title>19</title>
<polygon fill="none" stroke="black" points="498.09,-540 322.34,-540 322.34,-504 498.09,-504 498.09,-540"/>
<text text-anchor="middle" x="410.21" y="-517.33" font-family="Times,serif" font-size="14.00">pangalactic&#45;store&#45;mem</text>
</g>
<!-- 19&#45;&gt;13 -->
<g id="edge26" class="edge">
<title>19&#45;&gt;13</title>
<path fill="none" stroke="black" d="M405.06,-503.61C391.87,-456.16 360.2,-320.97 393.21,-216 396.21,-206.46 401.61,-197.14 407.37,-189.04"/>
<polygon fill="black" stroke="black" points="409.95,-191.42 413.26,-181.36 404.4,-187.17 409.95,-191.42"/>
</g>
<!-- 19&#45;&gt;18 -->
<g id="edge25" class="edge">
<title>19&#45;&gt;18</title>
<path fill="none" stroke="black" d="M391.51,-503.51C370.96,-484.72 336.55,-454.53 304.21,-432 246.73,-391.95 175.53,-353.12 130.23,-329.64"/>
<polygon fill="black" stroke="black" points="131.97,-326.6 121.48,-325.13 128.77,-332.83 131.97,-326.6"/>
</g>
<!-- 20&#45;&gt;6 -->
<g id="edge27" class="edge">
<title>20&#45;&gt;6</title>
<path fill="none" stroke="black" d="M959.19,-431.7C960.02,-424.41 961.02,-415.73 961.95,-407.54"/>
<polygon fill="black" stroke="black" points="965.43,-407.94 963.09,-397.61 958.47,-407.15 965.43,-407.94"/>
</g>
<!-- 21&#45;&gt;17 -->
<g id="edge28" class="edge">
<title>21&#45;&gt;17</title>
<path fill="none" stroke="black" d="M268.1,-575.73C301.12,-518.08 407.73,-331.89 447.8,-261.92"/>
<polygon fill="black" stroke="black" points="450.74,-263.82 452.67,-253.41 444.67,-260.35 450.74,-263.82"/>
</g>
<!-- 22 -->
<g id="node23" class="node">
<title>22</title>
<polygon fill="none" stroke="black" points="795.34,-468 627.09,-468 627.09,-432 795.34,-432 795.34,-468"/>
<text text-anchor="middle" x="711.21" y="-445.32" font-family="Times,serif" font-size="14.00">pangalactic&#45;schemata</text>
</g>
<!-- 22&#45;&gt;8 -->
<g id="edge29" class="edge">
<title>22&#45;&gt;8</title>
<path fill="none" stroke="black" stroke-dasharray="1,5" d="M693.9,-431.63C677.72,-413.2 658.04,-383.56 672.21,-360 679.92,-347.19 691.89,-337.31 704.89,-329.75"/>
<polygon fill="black" stroke="black" points="706.44,-332.89 713.65,-325.12 703.17,-326.7 706.44,-332.89"/>
</g>
<!-- 23&#45;&gt;5 -->
<g id="edge30" class="edge">
<title>23&#45;&gt;5</title>
<path fill="none" stroke="black" d="M512.61,-577.38C515.51,-576.9 518.39,-576.44 521.21,-576 650.41,-555.85 683.51,-556.61 813.21,-540 824.59,-538.54 836.53,-536.99 848.35,-535.44"/>
<polygon fill="black" stroke="black" points="848.67,-538.93 858.13,-534.15 847.76,-531.99 848.67,-538.93"/>
</g>
<!-- 23&#45;&gt;19 -->
<g id="edge33" class="edge">
<title>23&#45;&gt;19</title>
<path fill="none" stroke="black" d="M426.02,-575.7C423.78,-568.24 421.11,-559.32 418.6,-550.97"/>
<polygon fill="black" stroke="black" points="422.01,-550.13 415.78,-541.55 415.3,-552.14 422.01,-550.13"/>
</g>
<!-- 24 -->
<g id="node25" class="node">
<title>24</title>
<polygon fill="none" stroke="black" points="646.59,-540 515.84,-540 515.84,-504 646.59,-504 646.59,-540"/>
<text text-anchor="middle" x="581.21" y="-517.33" font-family="Times,serif" font-size="14.00">pangalactic&#45;host</text>
</g>
<!-- 23&#45;&gt;24 -->
<g id="edge31" class="edge">
<title>23&#45;&gt;24</title>
<path fill="none" stroke="black" d="M468.68,-575.52C488.35,-566.34 512.66,-554.99 533.65,-545.2"/>
<polygon fill="black" stroke="black" points="535.01,-548.42 542.6,-541.02 532.05,-542.08 535.01,-548.42"/>
</g>
<!-- 27 -->
<g id="node28" class="node">
<title>27</title>
<polygon fill="none" stroke="black" points="225.46,-540 48.96,-540 48.96,-504 225.46,-504 225.46,-540"/>
<text text-anchor="middle" x="137.21" y="-517.33" font-family="Times,serif" font-size="14.00">pangalactic&#45;store&#45;dirdb</text>
</g>
<!-- 23&#45;&gt;27 -->
<g id="edge32" class="edge">
<title>23&#45;&gt;27</title>
<path fill="none" stroke="black" d="M357.78,-575.52C316.4,-565.66 264.53,-553.31 221.5,-543.07"/>
<polygon fill="black" stroke="black" points="222.48,-539.7 211.94,-540.79 220.86,-546.51 222.48,-539.7"/>
</g>
<!-- 24&#45;&gt;22 -->
<g id="edge34" class="edge">
<title>24&#45;&gt;22</title>
<path fill="none" stroke="black" d="M613.68,-503.52C630.48,-494.47 651.19,-483.32 669.2,-473.62"/>
<polygon fill="black" stroke="black" points="670.68,-476.8 677.83,-468.98 667.36,-470.64 670.68,-476.8"/>
</g>
<!-- 26 -->
<g id="node27" class="node">
<title>26</title>
<polygon fill="none" stroke="black" points="608.84,-468 473.59,-468 473.59,-432 608.84,-432 608.84,-468"/>
<text text-anchor="middle" x="541.21" y="-445.32" font-family="Times,serif" font-size="14.00">pangalactic&#45;table</text>
</g>
<!-- 24&#45;&gt;26 -->
<g id="edge35" class="edge">
<title>24&#45;&gt;26</title>
<path fill="none" stroke="black" d="M571.33,-503.7C566.87,-495.9 561.5,-486.51 556.54,-477.83"/>
<polygon fill="black" stroke="black" points="559.74,-476.36 551.74,-469.42 553.66,-479.84 559.74,-476.36"/>
</g>
<!-- 25 -->
<g id="node26" class="node">
<title>25</title>
<polygon fill="none" stroke="black" points="615.21,-396 467.21,-396 467.21,-360 615.21,-360 615.21,-396"/>
<text text-anchor="middle" x="541.21" y="-373.32" font-family="Times,serif" font-size="14.00">pangalactic&#45;handle</text>
</g>
<!-- 26&#45;&gt;25 -->
<g id="edge36" class="edge">
<title>26&#45;&gt;25</title>
<path fill="none" stroke="black" d="M541.21,-431.7C541.21,-424.41 541.21,-415.73 541.21,-407.54"/>
<polygon fill="black" stroke="black" points="544.71,-407.62 541.21,-397.62 537.71,-407.62 544.71,-407.62"/>
</g>
<!-- 27&#45;&gt;13 -->
<g id="edge39" class="edge">
<title>27&#45;&gt;13</title>
<path fill="none" stroke="black" d="M134.52,-503.68C132.43,-485.05 131.45,-454.99 142.21,-432 196.29,-316.48 324.34,-226.55 389.95,-186.21"/>
<polygon fill="black" stroke="black" points="391.51,-189.35 398.24,-181.17 387.88,-183.37 391.51,-189.35"/>
</g>
<!-- 27&#45;&gt;18 -->
<g id="edge38" class="edge">
<title>27&#45;&gt;18</title>
<path fill="none" stroke="black" d="M126.05,-503.52C120.15,-493.49 113.3,-480.46 109.21,-468 94.53,-423.24 88.79,-368.5 86.58,-335.76"/>
<polygon fill="black" stroke="black" points="90.07,-335.64 85.98,-325.87 83.09,-336.06 90.07,-335.64"/>
</g>
<!-- 28 -->
<g id="node29" class="node">
<title>28</title>
<polygon fill="none" stroke="black" points="294.96,-468 151.46,-468 151.46,-432 294.96,-432 294.96,-468"/>
<text text-anchor="middle" x="223.21" y="-445.32" font-family="Times,serif" font-size="14.00">pangalactic&#45;config</text>
</g>
<!-- 27&#45;&gt;28 -->
<g id="edge37" class="edge">
<title>27&#45;&gt;28</title>
<path fill="none" stroke="black" d="M158.47,-503.7C168.91,-495.2 181.67,-484.81 193.1,-475.51"/>
<polygon fill="black" stroke="black" points="195.18,-478.33 200.73,-469.3 190.76,-472.9 195.18,-478.33"/>
</g>
<!-- 29&#45;&gt;21 -->
<g id="edge41" class="edge">
<title>29&#45;&gt;21</title>
<path fill="none" stroke="black" d="M348.15,-725.42C299.5,-716.8 245.02,-703.2 230.21,-684 216.29,-665.95 226.13,-640.86 237.82,-621.91"/>
<polygon fill="black" stroke="black" points="240.71,-623.9 243.34,-613.63 234.88,-620.02 240.71,-623.9"/>
</g>
<!-- 29&#45;&gt;23 -->
<g id="edge42" class="edge">
<title>29&#45;&gt;23</title>
<path fill="none" stroke="black" d="M432.09,-719.59C431.92,-695.61 431.62,-652.14 431.41,-623.42"/>
<polygon fill="black" stroke="black" points="434.91,-623.6 431.34,-613.62 427.91,-623.65 434.91,-623.6"/>
</g>
<!-- 30 -->
<g id="node31" class="node">
<title>30</title>
<polygon fill="none" stroke="black" points="951.84,-684 804.59,-684 804.59,-648 951.84,-648 951.84,-684"/>
<text text-anchor="middle" x="878.21" y="-661.33" font-family="Times,serif" font-size="14.00">pangalactic&#45;revcon</text>
</g>
<!-- 29&#45;&gt;30 -->
<g id="edge40" class="edge">
<title>29&#45;&gt;30</title>
<path fill="none" stroke="black" d="M516.3,-726.21C587.55,-716.73 692.69,-701.97 793.21,-684.48"/>
<polygon fill="black" stroke="black" points="793.76,-687.94 803.01,-682.76 792.55,-681.04 793.76,-687.94"/>
</g>
<!-- 31 -->
<g id="node32" class="node">
<title>31</title>
<polygon fill="none" stroke="black" points="1014.09,-612 862.34,-612 862.34,-576 1014.09,-576 1014.09,-612"/>
<text text-anchor="middle" x="938.21" y="-589.33" font-family="Times,serif" font-size="14.00">pangalactic&#45;globset</text>
</g>
<!-- 30&#45;&gt;31 -->
<g id="edge43" class="edge">
<title>30&#45;&gt;31</title>
<path fill="none" stroke="black" d="M893.04,-647.7C900.02,-639.56 908.48,-629.69 916.18,-620.7"/>
<polygon fill="black" stroke="black" points="918.72,-623.12 922.57,-613.25 913.4,-618.57 918.72,-623.12"/>
</g>
<!-- 32 -->
<g id="node33" class="node">
<title>32</title>
<polygon fill="none" stroke="black" points="844.09,-612 710.34,-612 710.34,-576 844.09,-576 844.09,-612"/>
<text text-anchor="middle" x="777.21" y="-589.33" font-family="Times,serif" font-size="14.00">pangalactic&#45;seed</text>
</g>
<!-- 30&#45;&gt;32 -->
<g id="edge44" class="edge">
<title>30&#45;&gt;32</title>
<path fill="none" stroke="black" d="M852.99,-647.52C840.36,-638.76 824.89,-628.04 811.23,-618.58"/>
<polygon fill="black" stroke="black" points="813.57,-615.94 803.36,-613.12 809.59,-621.7 813.57,-615.94"/>
</g>
<!-- 31&#45;&gt;5 -->
<g id="edge45" class="edge">
<title>31&#45;&gt;5</title>
<path fill="none" stroke="black" d="M938.95,-575.7C939.27,-568.41 939.64,-559.73 939.99,-551.54"/>
<polygon fill="black" stroke="black" points="943.48,-551.76 940.42,-541.62 936.49,-551.46 943.48,-551.76"/>
</g>
<!-- 32&#45;&gt;8 -->
<g id="edge47" class="edge">
<title>32&#45;&gt;8</title>
<path fill="none" stroke="black" d="M844.33,-577.91C847.33,-577.26 850.3,-576.62 853.21,-576 932.16,-559.19 972.68,-595.57 1031.21,-540 1090.44,-483.77 1120.63,-422.63 1068.21,-360 1042.31,-329.04 939.69,-316.15 862.49,-310.79"/>
<polygon fill="black" stroke="black" points="863.01,-307.31 852.8,-310.15 862.55,-314.3 863.01,-307.31"/>
</g>
<!-- 32&#45;&gt;19 -->
<g id="edge48" class="edge">
<title>32&#45;&gt;19</title>
<path fill="none" stroke="black" d="M710.11,-577.84C707.1,-577.21 704.13,-576.59 701.21,-576 665.27,-568.71 578.82,-553.05 509.43,-540.63"/>
<polygon fill="black" stroke="black" points="510.4,-537.25 499.94,-538.94 509.17,-544.14 510.4,-537.25"/>
</g>
<!-- 32&#45;&gt;28 -->
<g id="edge46" class="edge">
<title>32&#45;&gt;28</title>
<path fill="none" stroke="black" d="M710.17,-577.52C707.15,-576.97 704.15,-576.46 701.21,-576 615.68,-562.52 391.7,-576.58 313.21,-540 283.51,-526.15 257.86,-498.23 241.63,-477.33"/>
<polygon fill="black" stroke="black" points="244.57,-475.41 235.77,-469.51 238.97,-479.61 244.57,-475.41"/>
</g>
<!-- 33&#45;&gt;21 -->
<g id="edge50" class="edge">
<title>33&#45;&gt;21</title>
<path fill="none" stroke="black" d="M466.78,-647.52C427.74,-637.69 378.84,-625.37 338.2,-615.14"/>
<polygon fill="black" stroke="black" points="339.26,-611.8 328.71,-612.75 337.55,-618.59 339.26,-611.8"/>
</g>
<!-- 33&#45;&gt;23 -->
<g id="edge52" class="edge">
<title>33&#45;&gt;23</title>
<path fill="none" stroke="black" d="M509.99,-647.52C496.86,-638.76 480.78,-628.04 466.58,-618.58"/>
<polygon fill="black" stroke="black" points="468.63,-615.73 458.36,-613.1 464.74,-621.56 468.63,-615.73"/>
</g>
<!-- 33&#45;&gt;32 -->
<g id="edge51" class="edge">
<title>33&#45;&gt;32</title>
<path fill="none" stroke="black" d="M596.41,-647.52C629.89,-637.79 671.74,-625.64 706.74,-615.47"/>
<polygon fill="black" stroke="black" points="707.29,-618.95 715.92,-612.8 705.34,-612.23 707.29,-618.95"/>
</g>
<!-- 34 -->
<g id="node35" class="node">
<title>34</title>
<polygon fill="none" stroke="black" points="691.96,-612 530.46,-612 530.46,-576 691.96,-576 691.96,-612"/>
<text text-anchor="middle" x="611.21" y="-589.33" font-family="Times,serif" font-size="14.00">pangalactic&#45;manifest</text>
</g>
<!-- 33&#45;&gt;34 -->
<g id="edge49" class="edge">
<title>33&#45;&gt;34</title>
<path fill="none" stroke="black" d="M554.75,-647.7C563.68,-639.37 574.55,-629.22 584.35,-620.07"/>
<polygon fill="black" stroke="black" points="586.6,-622.76 591.52,-613.38 581.82,-617.64 586.6,-622.76"/>
</g>
<!-- 35 -->
<g id="node36" class="node">
<title>35</title>
<polygon fill="none" stroke="black" points="853.21,-396 681.21,-396 681.21,-360 853.21,-360 853.21,-396"/>
<text text-anchor="middle" x="767.21" y="-373.32" font-family="Times,serif" font-size="14.00">pangalactic&#45;nested&#45;dir</text>
</g>
<!-- 34&#45;&gt;35 -->
<g id="edge53" class="edge">
<title>34&#45;&gt;35</title>
<path fill="none" stroke="black" d="M692.43,-576.59C745.13,-565.12 805.42,-550.1 813.21,-540 844.21,-499.82 811.54,-439.56 787.62,-405.3"/>
<polygon fill="black" stroke="black" points="790.74,-403.65 782.05,-397.59 785.07,-407.75 790.74,-403.65"/>
</g>
<!-- 35&#45;&gt;8 -->
<g id="edge54" class="edge">
<title>35&#45;&gt;8</title>
<path fill="none" stroke="black" d="M768.45,-359.7C768.97,-352.41 769.59,-343.73 770.17,-335.54"/>
<polygon fill="black" stroke="black" points="773.66,-335.84 770.88,-325.61 766.68,-335.34 773.66,-335.84"/>
</g>
<!-- 36 -->
<g id="node37" class="node">
<title>36</title>
<polygon fill="none" stroke="black" points="714.71,-828 563.71,-828 563.71,-792 714.71,-792 714.71,-828"/>
<text text-anchor="middle" x="639.21" y="-805.33" font-family="Times,serif" font-size="14.00">pangalactic&#45;test&#45;dir</text>
</g>
<!-- 37 -->
<g id="node38" class="node">
<title>37</title>
<polygon fill="none" stroke="black" points="911.96,-828 732.46,-828 732.46,-792 911.96,-792 911.96,-828"/>
<text text-anchor="middle" x="822.21" y="-805.33" font-family="Times,serif" font-size="14.00">pangalactic&#45;test&#45;runner</text>
</g>
<!-- 38&#45;&gt;21 -->
<g id="edge57" class="edge">
<title>38&#45;&gt;21</title>
<path fill="none" stroke="black" d="M631,-649.47C628.04,-648.96 625.1,-648.47 622.21,-648 501.44,-628.48 467.33,-632.4 343.03,-612.22"/>
<polygon fill="black" stroke="black" points="343.86,-608.81 333.42,-610.64 342.72,-615.72 343.86,-608.81"/>
</g>
<!-- 38&#45;&gt;23 -->
<g id="edge59" class="edge">
<title>38&#45;&gt;23</title>
<path fill="none" stroke="black" d="M639.78,-647.52C600.74,-637.69 551.84,-625.37 511.2,-615.14"/>
<polygon fill="black" stroke="black" points="512.26,-611.8 501.71,-612.75 510.55,-618.59 512.26,-611.8"/>
</g>
<!-- 38&#45;&gt;31 -->
<g id="edge55" class="edge">
<title>38&#45;&gt;31</title>
<path fill="none" stroke="black" d="M766.41,-647.52C797.95,-637.88 837.31,-625.84 870.39,-615.73"/>
<polygon fill="black" stroke="black" points="871.36,-619.09 879.9,-612.82 869.32,-612.4 871.36,-619.09"/>
</g>
<!-- 38&#45;&gt;32 -->
<g id="edge58" class="edge">
<title>38&#45;&gt;32</title>
<path fill="none" stroke="black" d="M726.02,-647.7C734.09,-639.39 743.92,-629.28 752.79,-620.14"/>
<polygon fill="black" stroke="black" points="755.09,-622.8 759.54,-613.19 750.06,-617.92 755.09,-622.8"/>
</g>
<!-- 38&#45;&gt;34 -->
<g id="edge56" class="edge">
<title>38&#45;&gt;34</title>
<path fill="none" stroke="black" d="M684.74,-647.52C672.6,-638.85 657.76,-628.25 644.6,-618.85"/>
<polygon fill="black" stroke="black" points="646.78,-616.1 636.61,-613.14 642.71,-621.8 646.78,-616.1"/>
</g>
<!-- 39 -->
<g id="node40" class="node">
<title>39</title>
<polygon fill="none" stroke="black" points="804.09,-540 664.34,-540 664.34,-504 804.09,-504 804.09,-540"/>
<text text-anchor="middle" x="734.21" y="-517.33" font-family="Times,serif" font-size="14.00">pangalactic&#45;guest</text>
</g>
<!-- 39&#45;&gt;22 -->
<g id="edge60" class="edge">
<title>39&#45;&gt;22</title>
<path fill="none" stroke="black" d="M728.53,-503.7C726.08,-496.24 723.15,-487.32 720.4,-478.97"/>
<polygon fill="black" stroke="black" points="723.75,-477.95 717.31,-469.54 717.1,-480.14 723.75,-477.95"/>
</g>
<!-- 40 -->
<g id="node41" class="node">
<title>40</title>
<polygon fill="none" stroke="black" points="1025.96,-828 930.46,-828 930.46,-792 1025.96,-792 1025.96,-828"/>
<text text-anchor="middle" x="978.21" y="-805.33" font-family="Times,serif" font-size="14.00">pangalactic</text>
</g>
</g>
</svg>
