<?xml version="1.0" encoding="UTF-8" standalone="no"?>
<!DOCTYPE svg PUBLIC "-//W3C//DTD SVG 1.1//EN"
 "http://www.w3.org/Graphics/SVG/1.1/DTD/svg11.dtd">
<!-- Generated by graphviz version 12.2.1 (0)
 -->
<!-- Pages: 1 -->
<svg width="896pt" height="476pt"
 viewBox="0.00 0.00 896.00 476.00" xmlns="http://www.w3.org/2000/svg" xmlns:xlink="http://www.w3.org/1999/xlink">
<g id="graph0" class="graph" transform="scale(1 1) rotate(0) translate(4 472)">
<polygon fill="white" stroke="none" points="-4,4 -4,-472 892,-472 892,4 -4,4"/>
<!-- 0 -->
<g id="node1" class="node">
<title>0</title>
<polygon fill="none" stroke="black" points="568,-468 428.25,-468 428.25,-432 568,-432 568,-468"/>
<text text-anchor="middle" x="498.12" y="-445.32" font-family="Times,serif" font-size="14.00">pangalactic&#45;guest</text>
</g>
<!-- 5 -->
<g id="node6" class="node">
<title>5</title>
<polygon fill="none" stroke="black" points="582.25,-396 414,-396 414,-360 582.25,-360 582.25,-396"/>
<text text-anchor="middle" x="498.12" y="-373.32" font-family="Times,serif" font-size="14.00">pangalactic&#45;schemata</text>
</g>
<!-- 0&#45;&gt;5 -->
<g id="edge1" class="edge">
<title>0&#45;&gt;5</title>
<path fill="none" stroke="black" d="M498.12,-431.7C498.12,-424.41 498.12,-415.73 498.12,-407.54"/>
<polygon fill="black" stroke="black" points="501.63,-407.62 498.13,-397.62 494.63,-407.62 501.63,-407.62"/>
</g>
<!-- 1 -->
<g id="node2" class="node">
<title>1</title>
<polygon fill="none" stroke="black" points="293.88,-252 174.38,-252 174.38,-216 293.88,-216 293.88,-252"/>
<text text-anchor="middle" x="234.12" y="-229.32" font-family="Times,serif" font-size="14.00">pangalactic&#45;dir</text>
</g>
<!-- 3 -->
<g id="node4" class="node">
<title>3</title>
<polygon fill="none" stroke="black" points="304,-180 164.25,-180 164.25,-144 304,-144 304,-180"/>
<text text-anchor="middle" x="234.12" y="-157.32" font-family="Times,serif" font-size="14.00">pangalactic&#45;name</text>
</g>
<!-- 1&#45;&gt;3 -->
<g id="edge2" class="edge">
<title>1&#45;&gt;3</title>
<path fill="none" stroke="black" d="M234.12,-215.7C234.12,-208.41 234.12,-199.73 234.12,-191.54"/>
<polygon fill="black" stroke="black" points="237.63,-191.62 234.13,-181.62 230.63,-191.62 237.63,-191.62"/>
</g>
<!-- 2 -->
<g id="node3" class="node">
<title>2</title>
<polygon fill="none" stroke="black" points="772.88,-180 617.38,-180 617.38,-144 772.88,-144 772.88,-180"/>
<text text-anchor="middle" x="695.12" y="-157.32" font-family="Times,serif" font-size="14.00">pangalactic&#45;linkkind</text>
</g>
<!-- 4 -->
<g id="node5" class="node">
<title>4</title>
<polygon fill="none" stroke="black" points="888,-108 718.25,-108 718.25,-72 888,-72 888,-108"/>
<text text-anchor="middle" x="803.12" y="-85.33" font-family="Times,serif" font-size="14.00">pangalactic&#45;primitives</text>
</g>
<!-- 2&#45;&gt;4 -->
<g id="edge3" class="edge">
<title>2&#45;&gt;4</title>
<path fill="none" stroke="black" d="M722.1,-143.52C735.73,-134.68 752.46,-123.84 767.17,-114.3"/>
<polygon fill="black" stroke="black" points="768.74,-117.46 775.22,-109.08 764.93,-111.59 768.74,-117.46"/>
</g>
<!-- 7 -->
<g id="node8" class="node">
<title>7</title>
<polygon fill="none" stroke="black" points="577,-324 419.25,-324 419.25,-288 577,-288 577,-324"/>
<text text-anchor="middle" x="498.12" y="-301.32" font-family="Times,serif" font-size="14.00">pangalactic&#45;layer&#45;dir</text>
</g>
<!-- 5&#45;&gt;7 -->
<g id="edge4" class="edge">
<title>5&#45;&gt;7</title>
<path fill="none" stroke="black" stroke-dasharray="1,5" d="M498.12,-359.7C498.12,-352.41 498.12,-343.73 498.12,-335.54"/>
<polygon fill="black" stroke="black" points="501.63,-335.62 498.13,-325.62 494.63,-335.62 501.63,-335.62"/>
</g>
<!-- 6 -->
<g id="node7" class="node">
<title>6</title>
<polygon fill="none" stroke="black" points="506.38,-252 311.88,-252 311.88,-216 506.38,-216 506.38,-252"/>
<text text-anchor="middle" x="409.12" y="-229.32" font-family="Times,serif" font-size="14.00">pangalactic&#45;layer&#45;cidmeta</text>
</g>
<!-- 9 -->
<g id="node10" class="node">
<title>9</title>
<polygon fill="none" stroke="black" points="476.75,-180 341.5,-180 341.5,-144 476.75,-144 476.75,-180"/>
<text text-anchor="middle" x="409.12" y="-157.32" font-family="Times,serif" font-size="14.00">pangalactic&#45;store</text>
</g>
<!-- 6&#45;&gt;9 -->
<g id="edge5" class="edge">
<title>6&#45;&gt;9</title>
<path fill="none" stroke="black" d="M409.12,-215.7C409.12,-208.41 409.12,-199.73 409.12,-191.54"/>
<polygon fill="black" stroke="black" points="412.63,-191.62 409.13,-181.62 405.63,-191.62 412.63,-191.62"/>
</g>
<!-- 7&#45;&gt;1 -->
<g id="edge6" class="edge">
<title>7&#45;&gt;1</title>
<path fill="none" stroke="black" d="M432.19,-287.52C393.52,-277.26 344.66,-264.31 305.14,-253.83"/>
<polygon fill="black" stroke="black" points="306.29,-250.51 295.72,-251.33 304.49,-257.28 306.29,-250.51"/>
</g>
<!-- 7&#45;&gt;6 -->
<g id="edge7" class="edge">
<title>7&#45;&gt;6</title>
<path fill="none" stroke="black" d="M476.12,-287.7C465.21,-279.11 451.85,-268.61 439.94,-259.24"/>
<polygon fill="black" stroke="black" points="442.39,-256.71 432.37,-253.28 438.07,-262.22 442.39,-256.71"/>
</g>
<!-- 8 -->
<g id="node9" class="node">
<title>8</title>
<polygon fill="none" stroke="black" points="649.88,-252 524.38,-252 524.38,-216 649.88,-216 649.88,-252"/>
<text text-anchor="middle" x="587.12" y="-229.32" font-family="Times,serif" font-size="14.00">pangalactic&#45;link</text>
</g>
<!-- 7&#45;&gt;8 -->
<g id="edge8" class="edge">
<title>7&#45;&gt;8</title>
<path fill="none" stroke="black" d="M520.13,-287.7C531.04,-279.11 544.4,-268.61 556.31,-259.24"/>
<polygon fill="black" stroke="black" points="558.18,-262.22 563.88,-253.28 553.86,-256.71 558.18,-262.22"/>
</g>
<!-- 14 -->
<g id="node15" class="node">
<title>14</title>
<polygon fill="none" stroke="black" points="790,-252 668.25,-252 668.25,-216 790,-216 790,-252"/>
<text text-anchor="middle" x="729.12" y="-229.32" font-family="Times,serif" font-size="14.00">pangalactic&#45;log</text>
</g>
<!-- 7&#45;&gt;14 -->
<g id="edge9" class="edge">
<title>7&#45;&gt;14</title>
<path fill="none" stroke="black" d="M555.82,-287.52C587.77,-277.83 627.68,-265.74 661.15,-255.6"/>
<polygon fill="black" stroke="black" points="661.76,-259.07 670.32,-252.82 659.73,-252.37 661.76,-259.07"/>
</g>
<!-- 8&#45;&gt;2 -->
<g id="edge10" class="edge">
<title>8&#45;&gt;2</title>
<path fill="none" stroke="black" d="M614.1,-215.52C627.73,-206.68 644.46,-195.84 659.17,-186.3"/>
<polygon fill="black" stroke="black" points="660.74,-189.46 667.22,-181.08 656.93,-183.59 660.74,-189.46"/>
</g>
<!-- 8&#45;&gt;9 -->
<g id="edge11" class="edge">
<title>8&#45;&gt;9</title>
<path fill="none" stroke="black" stroke-dasharray="1,5" d="M542.67,-215.52C518.79,-206.13 489.15,-194.47 463.86,-184.53"/>
<polygon fill="black" stroke="black" points="465.32,-181.34 454.73,-180.94 462.76,-187.85 465.32,-181.34"/>
</g>
<!-- 10 -->
<g id="node11" class="node">
<title>10</title>
<polygon fill="none" stroke="black" points="162.25,-108 0,-108 0,-72 162.25,-72 162.25,-108"/>
<text text-anchor="middle" x="81.12" y="-85.33" font-family="Times,serif" font-size="14.00">pangalactic&#45;chomper</text>
</g>
<!-- 9&#45;&gt;10 -->
<g id="edge12" class="edge">
<title>9&#45;&gt;10</title>
<path fill="none" stroke="black" d="M341.16,-146.5C292.73,-136.16 227.03,-122.14 173.79,-110.78"/>
<polygon fill="black" stroke="black" points="174.62,-107.37 164.11,-108.71 173.16,-114.22 174.62,-107.37"/>
</g>
<!-- 11 -->
<g id="node12" class="node">
<title>11</title>
<polygon fill="none" stroke="black" points="301.62,-108 180.62,-108 180.62,-72 301.62,-72 301.62,-108"/>
<text text-anchor="middle" x="241.12" y="-85.33" font-family="Times,serif" font-size="14.00">pangalactic&#45;cid</text>
</g>
<!-- 9&#45;&gt;11 -->
<g id="edge13" class="edge">
<title>9&#45;&gt;11</title>
<path fill="none" stroke="black" d="M367.16,-143.52C344.83,-134.21 317.15,-122.68 293.43,-112.79"/>
<polygon fill="black" stroke="black" points="294.82,-109.58 284.24,-108.96 292.12,-116.04 294.82,-109.58"/>
</g>
<!-- 12 -->
<g id="node13" class="node">
<title>12</title>
<polygon fill="none" stroke="black" points="498.12,-108 320.12,-108 320.12,-72 498.12,-72 498.12,-108"/>
<text text-anchor="middle" x="409.12" y="-85.33" font-family="Times,serif" font-size="14.00">pangalactic&#45;iowrappers</text>
</g>
<!-- 9&#45;&gt;12 -->
<g id="edge14" class="edge">
<title>9&#45;&gt;12</title>
<path fill="none" stroke="black" d="M409.12,-143.7C409.12,-136.41 409.12,-127.73 409.12,-119.54"/>
<polygon fill="black" stroke="black" points="412.63,-119.62 409.13,-109.62 405.63,-119.62 412.63,-119.62"/>
</g>
<!-- 13 -->
<g id="node14" class="node">
<title>13</title>
<polygon fill="none" stroke="black" points="700.12,-108 516.12,-108 516.12,-72 700.12,-72 700.12,-108"/>
<text text-anchor="middle" x="608.12" y="-85.33" font-family="Times,serif" font-size="14.00">pangalactic&#45;serialization</text>
</g>
<!-- 9&#45;&gt;13 -->
<g id="edge15" class="edge">
<title>9&#45;&gt;13</title>
<path fill="none" stroke="black" d="M458.83,-143.52C485.88,-134 519.55,-122.16 548.06,-112.13"/>
<polygon fill="black" stroke="black" points="549.01,-115.5 557.28,-108.88 546.69,-108.9 549.01,-115.5"/>
</g>
<!-- 15 -->
<g id="node16" class="node">
<title>15</title>
<polygon fill="none" stroke="black" points="672,-36 544.25,-36 544.25,0 672,0 672,-36"/>
<text text-anchor="middle" x="608.12" y="-13.32" font-family="Times,serif" font-size="14.00">pangalactic&#45;b64</text>
</g>
<!-- 13&#45;&gt;15 -->
<g id="edge16" class="edge">
<title>13&#45;&gt;15</title>
<path fill="none" stroke="black" d="M608.12,-71.7C608.12,-64.41 608.12,-55.73 608.12,-47.54"/>
<polygon fill="black" stroke="black" points="611.63,-47.62 608.13,-37.62 604.63,-47.62 611.63,-47.62"/>
</g>
</g>
</svg>
