<?xml version="1.0" encoding="UTF-8" standalone="no"?>
<!DOCTYPE svg PUBLIC "-//W3C//DTD SVG 1.1//EN"
 "http://www.w3.org/Graphics/SVG/1.1/DTD/svg11.dtd">
<!-- Generated by graphviz version 12.2.1 (0)
 -->
<!-- Pages: 1 -->
<svg width="1490pt" height="764pt"
 viewBox="0.00 0.00 1489.88 764.00" xmlns="http://www.w3.org/2000/svg" xmlns:xlink="http://www.w3.org/1999/xlink">
<g id="graph0" class="graph" transform="scale(1 1) rotate(0) translate(4 760)">
<polygon fill="white" stroke="none" points="-4,4 -4,-760 1485.88,-760 1485.88,4 -4,4"/>
<!-- 0 -->
<g id="node1" class="node">
<title>0</title>
<polygon fill="none" stroke="black" points="759.88,-36 632.12,-36 632.12,0 759.88,0 759.88,-36"/>
<text text-anchor="middle" x="696" y="-13.32" font-family="Times,serif" font-size="14.00">pangalactic&#45;b64</text>
</g>
<!-- 1 -->
<g id="node2" class="node">
<title>1</title>
<polygon fill="none" stroke="black" points="1098.12,-108 935.88,-108 935.88,-72 1098.12,-72 1098.12,-108"/>
<text text-anchor="middle" x="1017" y="-85.33" font-family="Times,serif" font-size="14.00">pangalactic&#45;chomper</text>
</g>
<!-- 2 -->
<g id="node3" class="node">
<title>2</title>
<polygon fill="none" stroke="black" points="715.5,-108 594.5,-108 594.5,-72 715.5,-72 715.5,-108"/>
<text text-anchor="middle" x="655" y="-85.33" font-family="Times,serif" font-size="14.00">pangalactic&#45;cid</text>
</g>
<!-- 3 -->
<g id="node4" class="node">
<title>3</title>
<polygon fill="none" stroke="black" points="651.75,-756 484.25,-756 484.25,-720 651.75,-720 651.75,-756"/>
<text text-anchor="middle" x="568" y="-733.33" font-family="Times,serif" font-size="14.00">pangalactic&#45;cli&#45;revcon</text>
</g>
<!-- 9 -->
<g id="node10" class="node">
<title>9</title>
<polygon fill="none" stroke="black" points="1173.62,-684 1026.38,-684 1026.38,-648 1173.62,-648 1173.62,-684"/>
<text text-anchor="middle" x="1100" y="-661.33" font-family="Times,serif" font-size="14.00">pangalactic&#45;revcon</text>
</g>
<!-- 3&#45;&gt;9 -->
<g id="edge1" class="edge">
<title>3&#45;&gt;9</title>
<path fill="none" stroke="black" d="M652.11,-721.39C655.11,-720.91 658.08,-720.44 661,-720 783.52,-701.42 926.08,-685.2 1014.69,-675.75"/>
<polygon fill="black" stroke="black" points="1014.94,-679.24 1024.52,-674.71 1014.21,-672.28 1014.94,-679.24"/>
</g>
<!-- 23 -->
<g id="node24" class="node">
<title>23</title>
<polygon fill="none" stroke="black" points="279.62,-612 132.38,-612 132.38,-576 279.62,-576 279.62,-612"/>
<text text-anchor="middle" x="206" y="-589.33" font-family="Times,serif" font-size="14.00">pangalactic&#45;runopt</text>
</g>
<!-- 3&#45;&gt;23 -->
<g id="edge2" class="edge">
<title>3&#45;&gt;23</title>
<path fill="none" stroke="black" d="M484.01,-730.75C404.73,-723.43 292.81,-709.01 257,-684 236.03,-669.36 222.54,-643.13 214.73,-622.93"/>
<polygon fill="black" stroke="black" points="218.05,-621.81 211.39,-613.58 211.46,-624.17 218.05,-621.81"/>
</g>
<!-- 24 -->
<g id="node25" class="node">
<title>24</title>
<polygon fill="none" stroke="black" points="460.12,-612 297.88,-612 297.88,-576 460.12,-576 460.12,-612"/>
<text text-anchor="middle" x="379" y="-589.33" font-family="Times,serif" font-size="14.00">pangalactic&#45;std&#45;store</text>
</g>
<!-- 3&#45;&gt;24 -->
<g id="edge3" class="edge">
<title>3&#45;&gt;24</title>
<path fill="none" stroke="black" d="M544.82,-719.59C511.29,-694.4 449.12,-647.68 411.16,-619.17"/>
<polygon fill="black" stroke="black" points="413.38,-616.45 403.28,-613.24 409.17,-622.05 413.38,-616.45"/>
</g>
<!-- 30 -->
<g id="node31" class="node">
<title>30</title>
<polygon fill="none" stroke="black" points="1006.5,-612 855.5,-612 855.5,-576 1006.5,-576 1006.5,-612"/>
<text text-anchor="middle" x="931" y="-589.33" font-family="Times,serif" font-size="14.00">pangalactic&#45;test&#45;dir</text>
</g>
<!-- 3&#45;&gt;30 -->
<g id="edge4" class="edge">
<title>3&#45;&gt;30</title>
<path fill="none" stroke="blue" d="M652.22,-721.54C708.19,-710.59 776.16,-695.82 803,-684 840.12,-667.66 877.64,-639.95 902.38,-619.79"/>
<polygon fill="blue" stroke="blue" points="904.58,-622.51 910.04,-613.43 900.11,-617.12 904.58,-622.51"/>
</g>
<!-- 31 -->
<g id="node32" class="node">
<title>31</title>
<polygon fill="none" stroke="black" points="657.75,-612 478.25,-612 478.25,-576 657.75,-576 657.75,-612"/>
<text text-anchor="middle" x="568" y="-589.33" font-family="Times,serif" font-size="14.00">pangalactic&#45;test&#45;runner</text>
</g>
<!-- 3&#45;&gt;31 -->
<g id="edge5" class="edge">
<title>3&#45;&gt;31</title>
<path fill="none" stroke="blue" d="M568,-719.59C568,-695.61 568,-652.14 568,-623.42"/>
<polygon fill="blue" stroke="blue" points="571.5,-623.62 568,-613.62 564.5,-623.62 571.5,-623.62"/>
</g>
<!-- 4 -->
<g id="node5" class="node">
<title>4</title>
<polygon fill="none" stroke="black" points="1241.75,-468 1098.25,-468 1098.25,-432 1241.75,-432 1241.75,-468"/>
<text text-anchor="middle" x="1170" y="-445.32" font-family="Times,serif" font-size="14.00">pangalactic&#45;config</text>
</g>
<!-- 5 -->
<g id="node6" class="node">
<title>5</title>
<polygon fill="none" stroke="black" points="993.25,-252 798.75,-252 798.75,-216 993.25,-216 993.25,-252"/>
<text text-anchor="middle" x="896" y="-229.32" font-family="Times,serif" font-size="14.00">pangalactic&#45;layer&#45;cidmeta</text>
</g>
<!-- 8 -->
<g id="node9" class="node">
<title>8</title>
<polygon fill="none" stroke="black" points="1084.62,-180 949.38,-180 949.38,-144 1084.62,-144 1084.62,-180"/>
<text text-anchor="middle" x="1017" y="-157.32" font-family="Times,serif" font-size="14.00">pangalactic&#45;store</text>
</g>
<!-- 5&#45;&gt;8 -->
<g id="edge6" class="edge">
<title>5&#45;&gt;8</title>
<path fill="none" stroke="black" d="M926.22,-215.52C941.79,-206.51 960.95,-195.42 977.66,-185.76"/>
<polygon fill="black" stroke="black" points="978.95,-189.06 985.85,-181.02 975.45,-183 978.95,-189.06"/>
</g>
<!-- 6 -->
<g id="node7" class="node">
<title>6</title>
<polygon fill="none" stroke="black" points="1294,-108 1116,-108 1116,-72 1294,-72 1294,-108"/>
<text text-anchor="middle" x="1205" y="-85.33" font-family="Times,serif" font-size="14.00">pangalactic&#45;iowrappers</text>
</g>
<!-- 7 -->
<g id="node8" class="node">
<title>7</title>
<polygon fill="none" stroke="black" points="918,-108 734,-108 734,-72 918,-72 918,-108"/>
<text text-anchor="middle" x="826" y="-85.33" font-family="Times,serif" font-size="14.00">pangalactic&#45;serialization</text>
</g>
<!-- 7&#45;&gt;0 -->
<g id="edge7" class="edge">
<title>7&#45;&gt;0</title>
<path fill="none" stroke="black" d="M793.53,-71.52C776.73,-62.47 756.02,-51.32 738.02,-41.62"/>
<polygon fill="black" stroke="black" points="739.85,-38.64 729.39,-36.98 736.53,-44.8 739.85,-38.64"/>
</g>
<!-- 8&#45;&gt;1 -->
<g id="edge8" class="edge">
<title>8&#45;&gt;1</title>
<path fill="none" stroke="black" d="M1017,-143.7C1017,-136.41 1017,-127.73 1017,-119.54"/>
<polygon fill="black" stroke="black" points="1020.5,-119.62 1017,-109.62 1013.5,-119.62 1020.5,-119.62"/>
</g>
<!-- 8&#45;&gt;2 -->
<g id="edge9" class="edge">
<title>8&#45;&gt;2</title>
<path fill="none" stroke="black" d="M948.93,-149.81C892.15,-140.21 808.89,-125.52 726.72,-108.3"/>
<polygon fill="black" stroke="black" points="727.64,-104.92 717.14,-106.27 726.2,-111.76 727.64,-104.92"/>
</g>
<!-- 8&#45;&gt;6 -->
<g id="edge10" class="edge">
<title>8&#45;&gt;6</title>
<path fill="none" stroke="black" d="M1063.96,-143.52C1089.29,-134.08 1120.76,-122.37 1147.54,-112.39"/>
<polygon fill="black" stroke="black" points="1148.75,-115.68 1156.9,-108.91 1146.31,-109.12 1148.75,-115.68"/>
</g>
<!-- 8&#45;&gt;7 -->
<g id="edge11" class="edge">
<title>8&#45;&gt;7</title>
<path fill="none" stroke="black" d="M969.3,-143.52C943.45,-134.04 911.3,-122.26 884.01,-112.26"/>
<polygon fill="black" stroke="black" points="885.44,-109.06 874.85,-108.9 883.03,-115.63 885.44,-109.06"/>
</g>
<!-- 9&#45;&gt;4 -->
<g id="edge12" class="edge">
<title>9&#45;&gt;4</title>
<path fill="none" stroke="black" d="M1145.48,-647.62C1160.85,-639.3 1176.31,-627.66 1185,-612 1208.25,-570.1 1193.83,-512.49 1181.63,-478.76"/>
<polygon fill="black" stroke="black" points="1185.01,-477.8 1178.18,-469.7 1178.47,-480.29 1185.01,-477.8"/>
</g>
<!-- 22 -->
<g id="node23" class="node">
<title>22</title>
<polygon fill="none" stroke="black" points="1175.88,-612 1024.12,-612 1024.12,-576 1175.88,-576 1175.88,-612"/>
<text text-anchor="middle" x="1100" y="-589.33" font-family="Times,serif" font-size="14.00">pangalactic&#45;globset</text>
</g>
<!-- 9&#45;&gt;22 -->
<g id="edge13" class="edge">
<title>9&#45;&gt;22</title>
<path fill="none" stroke="black" d="M1100,-647.7C1100,-640.41 1100,-631.73 1100,-623.54"/>
<polygon fill="black" stroke="black" points="1103.5,-623.62 1100,-613.62 1096.5,-623.62 1103.5,-623.62"/>
</g>
<!-- 10 -->
<g id="node11" class="node">
<title>10</title>
<polygon fill="none" stroke="black" points="792.88,-396 605.12,-396 605.12,-360 792.88,-360 792.88,-396"/>
<text text-anchor="middle" x="699" y="-373.32" font-family="Times,serif" font-size="14.00">pangalactic&#45;dag&#45;transfer</text>
</g>
<!-- 11 -->
<g id="node12" class="node">
<title>11</title>
<polygon fill="none" stroke="black" points="774.88,-324 617.12,-324 617.12,-288 774.88,-288 774.88,-324"/>
<text text-anchor="middle" x="696" y="-301.32" font-family="Times,serif" font-size="14.00">pangalactic&#45;layer&#45;dir</text>
</g>
<!-- 10&#45;&gt;11 -->
<g id="edge14" class="edge">
<title>10&#45;&gt;11</title>
<path fill="none" stroke="black" d="M698.26,-359.7C697.95,-352.41 697.57,-343.73 697.22,-335.54"/>
<polygon fill="black" stroke="black" points="700.72,-335.46 696.8,-325.62 693.73,-335.76 700.72,-335.46"/>
</g>
<!-- 11&#45;&gt;5 -->
<g id="edge16" class="edge">
<title>11&#45;&gt;5</title>
<path fill="none" stroke="black" d="M745.95,-287.52C773.14,-278 806.98,-266.16 835.63,-256.13"/>
<polygon fill="black" stroke="black" points="836.63,-259.49 844.91,-252.88 834.31,-252.88 836.63,-259.49"/>
</g>
<!-- 12 -->
<g id="node13" class="node">
<title>12</title>
<polygon fill="none" stroke="black" points="548.75,-252 429.25,-252 429.25,-216 548.75,-216 548.75,-252"/>
<text text-anchor="middle" x="489" y="-229.32" font-family="Times,serif" font-size="14.00">pangalactic&#45;dir</text>
</g>
<!-- 11&#45;&gt;12 -->
<g id="edge15" class="edge">
<title>11&#45;&gt;12</title>
<path fill="none" stroke="black" d="M644.3,-287.52C616.04,-277.96 580.83,-266.05 551.09,-256"/>
<polygon fill="black" stroke="black" points="552.43,-252.75 541.83,-252.87 550.19,-259.39 552.43,-252.75"/>
</g>
<!-- 14 -->
<g id="node15" class="node">
<title>14</title>
<polygon fill="none" stroke="black" points="1174.75,-252 1049.25,-252 1049.25,-216 1174.75,-216 1174.75,-252"/>
<text text-anchor="middle" x="1112" y="-229.32" font-family="Times,serif" font-size="14.00">pangalactic&#45;link</text>
</g>
<!-- 11&#45;&gt;14 -->
<g id="edge17" class="edge">
<title>11&#45;&gt;14</title>
<path fill="none" stroke="black" d="M775.23,-291.67C850.9,-278.93 964.07,-259.89 1037.97,-247.46"/>
<polygon fill="black" stroke="black" points="1038.26,-250.96 1047.54,-245.85 1037.1,-244.05 1038.26,-250.96"/>
</g>
<!-- 17 -->
<g id="node18" class="node">
<title>17</title>
<polygon fill="none" stroke="black" points="244.88,-252 123.12,-252 123.12,-216 244.88,-216 244.88,-252"/>
<text text-anchor="middle" x="184" y="-229.32" font-family="Times,serif" font-size="14.00">pangalactic&#45;log</text>
</g>
<!-- 11&#45;&gt;17 -->
<g id="edge18" class="edge">
<title>11&#45;&gt;17</title>
<path fill="none" stroke="black" d="M616.84,-294.18C518.39,-280.72 351.7,-257.93 256.47,-244.91"/>
<polygon fill="black" stroke="black" points="257.1,-241.46 246.71,-243.57 256.15,-248.4 257.1,-241.46"/>
</g>
<!-- 19 -->
<g id="node20" class="node">
<title>19</title>
<polygon fill="none" stroke="black" points="780.88,-252 605.12,-252 605.12,-216 780.88,-216 780.88,-252"/>
<text text-anchor="middle" x="693" y="-229.32" font-family="Times,serif" font-size="14.00">pangalactic&#45;store&#45;mem</text>
</g>
<!-- 11&#45;&gt;19 -->
<g id="edge19" class="edge">
<title>11&#45;&gt;19</title>
<path fill="none" stroke="blue" d="M695.26,-287.7C694.95,-280.41 694.57,-271.73 694.22,-263.54"/>
<polygon fill="blue" stroke="blue" points="697.72,-263.46 693.8,-253.62 690.73,-263.76 697.72,-263.46"/>
</g>
<!-- 13 -->
<g id="node14" class="node">
<title>13</title>
<polygon fill="none" stroke="black" points="558.88,-180 419.12,-180 419.12,-144 558.88,-144 558.88,-180"/>
<text text-anchor="middle" x="489" y="-157.32" font-family="Times,serif" font-size="14.00">pangalactic&#45;name</text>
</g>
<!-- 12&#45;&gt;13 -->
<g id="edge20" class="edge">
<title>12&#45;&gt;13</title>
<path fill="none" stroke="black" d="M489,-215.7C489,-208.41 489,-199.73 489,-191.54"/>
<polygon fill="black" stroke="black" points="492.5,-191.62 489,-181.62 485.5,-191.62 492.5,-191.62"/>
</g>
<!-- 14&#45;&gt;8 -->
<g id="edge22" class="edge">
<title>14&#45;&gt;8</title>
<path fill="none" stroke="black" stroke-dasharray="1,5" d="M1082.34,-215.52C1069.82,-206.93 1055.42,-196.46 1043.29,-187.12"/>
<polygon fill="black" stroke="black" points="1045.74,-184.6 1035.71,-181.19 1041.43,-190.11 1045.74,-184.6"/>
</g>
<!-- 14&#45;&gt;8 -->
<g id="edge23" class="edge">
<title>14&#45;&gt;8</title>
<path fill="none" stroke="blue" d="M1094.43,-215.7C1083.46,-206.95 1069.04,-196.19 1055.57,-186.69"/>
<polygon fill="blue" stroke="blue" points="1057.91,-184.05 1047.7,-181.21 1053.91,-189.8 1057.91,-184.05"/>
</g>
<!-- 15 -->
<g id="node16" class="node">
<title>15</title>
<polygon fill="none" stroke="black" points="1365.75,-180 1210.25,-180 1210.25,-144 1365.75,-144 1365.75,-180"/>
<text text-anchor="middle" x="1288" y="-157.32" font-family="Times,serif" font-size="14.00">pangalactic&#45;linkkind</text>
</g>
<!-- 14&#45;&gt;15 -->
<g id="edge21" class="edge">
<title>14&#45;&gt;15</title>
<path fill="none" stroke="black" d="M1155.96,-215.52C1179.57,-206.13 1208.87,-194.47 1233.88,-184.53"/>
<polygon fill="black" stroke="black" points="1234.89,-187.89 1242.89,-180.94 1232.31,-181.38 1234.89,-187.89"/>
</g>
<!-- 16 -->
<g id="node17" class="node">
<title>16</title>
<polygon fill="none" stroke="black" points="1481.88,-108 1312.12,-108 1312.12,-72 1481.88,-72 1481.88,-108"/>
<text text-anchor="middle" x="1397" y="-85.33" font-family="Times,serif" font-size="14.00">pangalactic&#45;primitives</text>
</g>
<!-- 15&#45;&gt;16 -->
<g id="edge24" class="edge">
<title>15&#45;&gt;16</title>
<path fill="none" stroke="black" d="M1315.22,-143.52C1328.98,-134.68 1345.87,-123.84 1360.71,-114.3"/>
<polygon fill="black" stroke="black" points="1362.33,-117.43 1368.85,-109.08 1358.54,-111.54 1362.33,-117.43"/>
</g>
<!-- 18 -->
<g id="node19" class="node">
<title>18</title>
<polygon fill="none" stroke="black" points="718.25,-180 583.75,-180 583.75,-144 718.25,-144 718.25,-180"/>
<text text-anchor="middle" x="651" y="-157.32" font-family="Times,serif" font-size="14.00">pangalactic&#45;hash</text>
</g>
<!-- 18&#45;&gt;0 -->
<g id="edge25" class="edge">
<title>18&#45;&gt;0</title>
<path fill="none" stroke="black" d="M619.08,-143.54C606.31,-134.72 593,-122.73 586,-108 579.14,-93.55 577.49,-85.55 586,-72 594.52,-58.44 607.59,-48.26 621.79,-40.66"/>
<polygon fill="black" stroke="black" points="622.95,-43.99 630.4,-36.46 619.88,-37.7 622.95,-43.99"/>
</g>
<!-- 18&#45;&gt;2 -->
<g id="edge26" class="edge">
<title>18&#45;&gt;2</title>
<path fill="none" stroke="black" d="M651.99,-143.7C652.41,-136.41 652.9,-127.73 653.37,-119.54"/>
<polygon fill="black" stroke="black" points="656.86,-119.8 653.94,-109.62 649.87,-119.4 656.86,-119.8"/>
</g>
<!-- 19&#45;&gt;8 -->
<g id="edge28" class="edge">
<title>19&#45;&gt;8</title>
<path fill="none" stroke="black" d="M773.92,-215.52C824.11,-204.67 888.28,-190.81 938.09,-180.05"/>
<polygon fill="black" stroke="black" points="938.61,-183.52 947.65,-177.98 937.14,-176.67 938.61,-183.52"/>
</g>
<!-- 19&#45;&gt;18 -->
<g id="edge27" class="edge">
<title>19&#45;&gt;18</title>
<path fill="none" stroke="black" d="M682.62,-215.7C677.94,-207.9 672.31,-198.51 667.1,-189.83"/>
<polygon fill="black" stroke="black" points="670.19,-188.18 662.04,-181.4 664.19,-191.78 670.19,-188.18"/>
</g>
<!-- 20 -->
<g id="node21" class="node">
<title>20</title>
<polygon fill="none" stroke="black" points="761.12,-540 598.88,-540 598.88,-504 761.12,-504 761.12,-540"/>
<text text-anchor="middle" x="680" y="-517.33" font-family="Times,serif" font-size="14.00">pangalactic&#45;endpoint</text>
</g>
<!-- 21 -->
<g id="node22" class="node">
<title>21</title>
<polygon fill="none" stroke="black" points="760.5,-468 603.5,-468 603.5,-432 760.5,-432 760.5,-468"/>
<text text-anchor="middle" x="682" y="-445.32" font-family="Times,serif" font-size="14.00">pangalactic&#45;linkpath</text>
</g>
<!-- 20&#45;&gt;21 -->
<g id="edge29" class="edge">
<title>20&#45;&gt;21</title>
<path fill="none" stroke="black" d="M680.49,-503.7C680.7,-496.41 680.95,-487.73 681.18,-479.54"/>
<polygon fill="black" stroke="black" points="684.68,-479.71 681.47,-469.62 677.68,-479.51 684.68,-479.71"/>
</g>
<!-- 21&#45;&gt;10 -->
<g id="edge30" class="edge">
<title>21&#45;&gt;10</title>
<path fill="none" stroke="black" d="M686.2,-431.7C687.99,-424.32 690.13,-415.52 692.14,-407.25"/>
<polygon fill="black" stroke="black" points="695.53,-408.12 694.49,-397.58 688.73,-406.47 695.53,-408.12"/>
</g>
<!-- 22&#45;&gt;20 -->
<g id="edge31" class="edge">
<title>22&#45;&gt;20</title>
<path fill="none" stroke="black" d="M1024.02,-577.47C1021.32,-576.97 1018.64,-576.47 1016,-576 933.83,-561.21 839.94,-546.59 772.34,-536.47"/>
<polygon fill="black" stroke="black" points="773.2,-533.06 762.79,-535.04 772.17,-539.98 773.2,-533.06"/>
</g>
<!-- 23&#45;&gt;17 -->
<g id="edge32" class="edge">
<title>23&#45;&gt;17</title>
<path fill="none" stroke="black" d="M135.11,-575.57C75.52,-556.18 0,-518.33 0,-451 0,-451 0,-451 0,-377 0,-316.32 63.5,-277.93 115.89,-256.58"/>
<polygon fill="black" stroke="black" points="117.09,-259.87 125.13,-252.96 114.54,-253.35 117.09,-259.87"/>
</g>
<!-- 24&#45;&gt;20 -->
<g id="edge33" class="edge">
<title>24&#45;&gt;20</title>
<path fill="none" stroke="black" d="M454.18,-575.52C496.64,-565.64 549.87,-553.26 593.99,-543"/>
<polygon fill="black" stroke="black" points="594.58,-546.46 603.52,-540.79 592.99,-539.64 594.58,-546.46"/>
</g>
<!-- 25 -->
<g id="node26" class="node">
<title>25</title>
<polygon fill="none" stroke="black" points="444.38,-540 313.62,-540 313.62,-504 444.38,-504 444.38,-540"/>
<text text-anchor="middle" x="379" y="-517.33" font-family="Times,serif" font-size="14.00">pangalactic&#45;host</text>
</g>
<!-- 24&#45;&gt;25 -->
<g id="edge34" class="edge">
<title>24&#45;&gt;25</title>
<path fill="none" stroke="black" d="M379,-575.7C379,-568.41 379,-559.73 379,-551.54"/>
<polygon fill="black" stroke="black" points="382.5,-551.62 379,-541.62 375.5,-551.62 382.5,-551.62"/>
</g>
<!-- 29 -->
<g id="node30" class="node">
<title>29</title>
<polygon fill="none" stroke="black" points="1060.25,-540 883.75,-540 883.75,-504 1060.25,-504 1060.25,-540"/>
<text text-anchor="middle" x="972" y="-517.33" font-family="Times,serif" font-size="14.00">pangalactic&#45;store&#45;dirdb</text>
</g>
<!-- 24&#45;&gt;29 -->
<g id="edge35" class="edge">
<title>24&#45;&gt;29</title>
<path fill="none" stroke="black" d="M460.38,-577.32C463.29,-576.86 466.17,-576.42 469,-576 608.42,-555.52 770.72,-539.89 872.41,-531.08"/>
<polygon fill="black" stroke="black" points="872.42,-534.59 882.08,-530.24 871.82,-527.61 872.42,-534.59"/>
</g>
<!-- 27 -->
<g id="node28" class="node">
<title>27</title>
<polygon fill="none" stroke="black" points="432.12,-468 263.88,-468 263.88,-432 432.12,-432 432.12,-468"/>
<text text-anchor="middle" x="348" y="-445.32" font-family="Times,serif" font-size="14.00">pangalactic&#45;schemata</text>
</g>
<!-- 25&#45;&gt;27 -->
<g id="edge36" class="edge">
<title>25&#45;&gt;27</title>
<path fill="none" stroke="black" d="M371.34,-503.7C367.96,-496.07 363.91,-486.92 360.13,-478.4"/>
<polygon fill="black" stroke="black" points="363.44,-477.21 356.19,-469.49 357.04,-480.05 363.44,-477.21"/>
</g>
<!-- 28 -->
<g id="node29" class="node">
<title>28</title>
<polygon fill="none" stroke="black" points="585.62,-468 450.38,-468 450.38,-432 585.62,-432 585.62,-468"/>
<text text-anchor="middle" x="518" y="-445.32" font-family="Times,serif" font-size="14.00">pangalactic&#45;table</text>
</g>
<!-- 25&#45;&gt;28 -->
<g id="edge37" class="edge">
<title>25&#45;&gt;28</title>
<path fill="none" stroke="black" d="M413.72,-503.52C431.85,-494.39 454.23,-483.11 473.61,-473.35"/>
<polygon fill="black" stroke="black" points="475.02,-476.57 482.37,-468.94 471.87,-470.31 475.02,-476.57"/>
</g>
<!-- 26 -->
<g id="node27" class="node">
<title>26</title>
<polygon fill="none" stroke="black" points="549,-396 401,-396 401,-360 549,-360 549,-396"/>
<text text-anchor="middle" x="475" y="-373.32" font-family="Times,serif" font-size="14.00">pangalactic&#45;handle</text>
</g>
<!-- 27&#45;&gt;11 -->
<g id="edge38" class="edge">
<title>27&#45;&gt;11</title>
<path fill="none" stroke="black" stroke-dasharray="1,5" d="M351.62,-431.56C356.83,-411.04 368.53,-377.55 392,-360 425.07,-335.27 528.56,-321.1 605.66,-313.75"/>
<polygon fill="black" stroke="black" points="605.69,-317.26 615.33,-312.85 605.05,-310.29 605.69,-317.26"/>
</g>
<!-- 28&#45;&gt;26 -->
<g id="edge39" class="edge">
<title>28&#45;&gt;26</title>
<path fill="none" stroke="black" d="M507.37,-431.7C502.58,-423.9 496.81,-414.51 491.48,-405.83"/>
<polygon fill="black" stroke="black" points="494.52,-404.08 486.3,-397.39 488.55,-407.75 494.52,-404.08"/>
</g>
<!-- 29&#45;&gt;4 -->
<g id="edge40" class="edge">
<title>29&#45;&gt;4</title>
<path fill="none" stroke="black" d="M1021.45,-503.52C1048.37,-494 1081.87,-482.16 1110.24,-472.13"/>
<polygon fill="black" stroke="black" points="1111.15,-475.52 1119.41,-468.89 1108.81,-468.92 1111.15,-475.52"/>
</g>
<!-- 29&#45;&gt;8 -->
<g id="edge42" class="edge">
<title>29&#45;&gt;8</title>
<path fill="none" stroke="black" d="M982.15,-503.73C996.51,-477.64 1021,-426.2 1021,-379 1021,-379 1021,-379 1021,-305 1021,-265.72 1019.45,-220.36 1018.28,-191.69"/>
<polygon fill="black" stroke="black" points="1021.79,-191.84 1017.87,-182 1014.8,-192.14 1021.79,-191.84"/>
</g>
<!-- 29&#45;&gt;18 -->
<g id="edge41" class="edge">
<title>29&#45;&gt;18</title>
<path fill="none" stroke="black" d="M938.54,-503.63C899.15,-483.81 831.32,-451.61 770,-432 694.78,-407.95 645.86,-457.24 596,-396 545.49,-333.97 564.7,-289.62 596,-216 600.55,-205.29 608.45,-195.7 616.86,-187.71"/>
<polygon fill="black" stroke="black" points="618.98,-190.5 624.19,-181.28 614.37,-185.24 618.98,-190.5"/>
</g>
<!-- 32 -->
<g id="node33" class="node">
<title>32</title>
<polygon fill="none" stroke="black" points="430.25,-684 265.75,-684 265.75,-648 430.25,-648 430.25,-684"/>
<text text-anchor="middle" x="348" y="-661.33" font-family="Times,serif" font-size="14.00">pangalactic&#45;cli&#45;derive</text>
</g>
<!-- 32&#45;&gt;23 -->
<g id="edge43" class="edge">
<title>32&#45;&gt;23</title>
<path fill="none" stroke="black" d="M312.53,-647.52C293.93,-638.34 270.93,-627.01 251.07,-617.22"/>
<polygon fill="black" stroke="black" points="252.89,-614.21 242.37,-612.93 249.79,-620.49 252.89,-614.21"/>
</g>
<!-- 32&#45;&gt;24 -->
<g id="edge44" class="edge">
<title>32&#45;&gt;24</title>
<path fill="none" stroke="black" d="M355.66,-647.7C359.04,-640.07 363.09,-630.92 366.87,-622.4"/>
<polygon fill="black" stroke="black" points="369.96,-624.05 370.81,-613.49 363.56,-621.21 369.96,-624.05"/>
</g>
<!-- 33 -->
<g id="node34" class="node">
<title>33</title>
<polygon fill="none" stroke="black" points="793.75,-684 638.25,-684 638.25,-648 793.75,-648 793.75,-684"/>
<text text-anchor="middle" x="716" y="-661.33" font-family="Times,serif" font-size="14.00">pangalactic&#45;cli&#45;store</text>
</g>
<!-- 33&#45;&gt;22 -->
<g id="edge45" class="edge">
<title>33&#45;&gt;22</title>
<path fill="none" stroke="black" d="M794.11,-651.75C851.99,-641.8 933.1,-627.6 1012.78,-612.59"/>
<polygon fill="black" stroke="black" points="1013.35,-616.04 1022.52,-610.75 1012.05,-609.17 1013.35,-616.04"/>
</g>
<!-- 33&#45;&gt;23 -->
<g id="edge47" class="edge">
<title>33&#45;&gt;23</title>
<path fill="none" stroke="black" d="M637.82,-657.16C554.42,-648.37 418.24,-632.82 290.83,-612.22"/>
<polygon fill="black" stroke="black" points="291.64,-608.81 281.2,-610.65 290.51,-615.72 291.64,-608.81"/>
</g>
<!-- 33&#45;&gt;24 -->
<g id="edge48" class="edge">
<title>33&#45;&gt;24</title>
<path fill="none" stroke="black" d="M637.84,-648.76C588.29,-638.47 523.96,-625.11 471.82,-614.28"/>
<polygon fill="black" stroke="black" points="472.54,-610.85 462.03,-612.25 471.11,-617.71 472.54,-610.85"/>
</g>
<!-- 33&#45;&gt;30 -->
<g id="edge49" class="edge">
<title>33&#45;&gt;30</title>
<path fill="none" stroke="blue" d="M769.7,-647.52C799.18,-637.92 835.94,-625.95 866.92,-615.86"/>
<polygon fill="blue" stroke="blue" points="867.75,-619.27 876.17,-612.85 865.58,-612.62 867.75,-619.27"/>
</g>
<!-- 33&#45;&gt;31 -->
<g id="edge50" class="edge">
<title>33&#45;&gt;31</title>
<path fill="none" stroke="blue" d="M679.04,-647.52C659.63,-638.34 635.64,-626.99 614.93,-617.2"/>
<polygon fill="blue" stroke="blue" points="616.65,-614.14 606.12,-613.03 613.66,-620.47 616.65,-614.14"/>
</g>
<!-- 34 -->
<g id="node35" class="node">
<title>34</title>
<polygon fill="none" stroke="black" points="837.75,-612 676.25,-612 676.25,-576 837.75,-576 837.75,-612"/>
<text text-anchor="middle" x="757" y="-589.33" font-family="Times,serif" font-size="14.00">pangalactic&#45;manifest</text>
</g>
<!-- 33&#45;&gt;34 -->
<g id="edge46" class="edge">
<title>33&#45;&gt;34</title>
<path fill="none" stroke="black" d="M726.13,-647.7C730.7,-639.9 736.2,-630.51 741.29,-621.83"/>
<polygon fill="black" stroke="black" points="744.18,-623.81 746.22,-613.41 738.14,-620.27 744.18,-623.81"/>
</g>
<!-- 35 -->
<g id="node36" class="node">
<title>35</title>
<polygon fill="none" stroke="black" points="983,-396 811,-396 811,-360 983,-360 983,-396"/>
<text text-anchor="middle" x="897" y="-373.32" font-family="Times,serif" font-size="14.00">pangalactic&#45;nested&#45;dir</text>
</g>
<!-- 34&#45;&gt;35 -->
<g id="edge51" class="edge">
<title>34&#45;&gt;35</title>
<path fill="none" stroke="black" d="M768.22,-575.85C792.54,-538.68 850.26,-450.44 879.45,-405.82"/>
<polygon fill="black" stroke="black" points="882.35,-407.78 884.9,-397.5 876.49,-403.95 882.35,-407.78"/>
</g>
<!-- 35&#45;&gt;11 -->
<g id="edge52" class="edge">
<title>35&#45;&gt;11</title>
<path fill="none" stroke="black" d="M846.8,-359.52C819.47,-350 785.47,-338.16 756.67,-328.13"/>
<polygon fill="black" stroke="black" points="757.93,-324.86 747.34,-324.88 755.63,-331.47 757.93,-324.86"/>
</g>
<!-- 36 -->
<g id="node37" class="node">
<title>36</title>
<polygon fill="none" stroke="black" points="250.88,-540 111.12,-540 111.12,-504 250.88,-504 250.88,-540"/>
<text text-anchor="middle" x="181" y="-517.33" font-family="Times,serif" font-size="14.00">pangalactic&#45;guest</text>
</g>
<!-- 36&#45;&gt;27 -->
<g id="edge54" class="edge">
<title>36&#45;&gt;27</title>
<path fill="none" stroke="black" d="M222.71,-503.52C244.91,-494.21 272.42,-482.68 296.01,-472.79"/>
<polygon fill="black" stroke="black" points="297.27,-476.06 305.14,-468.97 294.56,-469.6 297.27,-476.06"/>
</g>
<!-- 37 -->
<g id="node38" class="node">
<title>37</title>
<polygon fill="none" stroke="#00cd00" points="245.88,-468 28.12,-468 28.12,-432 245.88,-432 245.88,-468"/>
<text text-anchor="middle" x="137" y="-445.32" font-family="Times,serif" font-size="14.00">pangalactic&#45;guest&#45;procmacro</text>
</g>
<!-- 36&#45;&gt;37 -->
<g id="edge53" class="edge">
<title>36&#45;&gt;37</title>
<path fill="none" stroke="#00cd00" d="M170.12,-503.7C165.22,-495.9 159.32,-486.51 153.86,-477.83"/>
<polygon fill="#00cd00" stroke="#00cd00" points="156.84,-475.99 148.56,-469.39 150.92,-479.71 156.84,-475.99"/>
</g>
<!-- 38 -->
<g id="node39" class="node">
<title>38</title>
<polygon fill="none" stroke="black" points="765.75,-756 670.25,-756 670.25,-720 765.75,-720 765.75,-756"/>
<text text-anchor="middle" x="718" y="-733.33" font-family="Times,serif" font-size="14.00">pangalactic</text>
</g>
</g>
</svg>
