<?xml version="1.0" encoding="UTF-8" standalone="no"?>
<!DOCTYPE svg PUBLIC "-//W3C//DTD SVG 1.1//EN"
 "http://www.w3.org/Graphics/SVG/1.1/DTD/svg11.dtd">
<!-- Generated by graphviz version 12.2.1 (0)
 -->
<!-- Pages: 1 -->
<svg width="1112pt" height="764pt"
 viewBox="0.00 0.00 1111.62 764.00" xmlns="http://www.w3.org/2000/svg" xmlns:xlink="http://www.w3.org/1999/xlink">
<g id="graph0" class="graph" transform="scale(1 1) rotate(0) translate(4 760)">
<polygon fill="white" stroke="none" points="-4,4 -4,-760 1107.62,-760 1107.62,4 -4,4"/>
<!-- 0 -->
<g id="node1" class="node">
<title>0</title>
<polygon fill="none" stroke="black" points="521.62,-36 393.88,-36 393.88,0 521.62,0 521.62,-36"/>
<text text-anchor="middle" x="457.75" y="-13.32" font-family="Times,serif" font-size="14.00">pangalactic&#45;b64</text>
</g>
<!-- 1 -->
<g id="node2" class="node">
<title>1</title>
<polygon fill="none" stroke="black" points="469.88,-108 307.62,-108 307.62,-72 469.88,-72 469.88,-108"/>
<text text-anchor="middle" x="388.75" y="-85.33" font-family="Times,serif" font-size="14.00">pangalactic&#45;chomper</text>
</g>
<!-- 2 -->
<g id="node3" class="node">
<title>2</title>
<polygon fill="none" stroke="black" points="289.25,-108 168.25,-108 168.25,-72 289.25,-72 289.25,-108"/>
<text text-anchor="middle" x="228.75" y="-85.33" font-family="Times,serif" font-size="14.00">pangalactic&#45;cid</text>
</g>
<!-- 3 -->
<g id="node4" class="node">
<title>3</title>
<polygon fill="none" stroke="black" points="499.5,-756 332,-756 332,-720 499.5,-720 499.5,-756"/>
<text text-anchor="middle" x="415.75" y="-733.33" font-family="Times,serif" font-size="14.00">pangalactic&#45;cli&#45;revcon</text>
</g>
<!-- 9 -->
<g id="node10" class="node">
<title>9</title>
<polygon fill="none" stroke="black" points="356.38,-684 209.12,-684 209.12,-648 356.38,-648 356.38,-684"/>
<text text-anchor="middle" x="282.75" y="-661.33" font-family="Times,serif" font-size="14.00">pangalactic&#45;revcon</text>
</g>
<!-- 3&#45;&gt;9 -->
<g id="edge1" class="edge">
<title>3&#45;&gt;9</title>
<path fill="none" stroke="black" d="M382.53,-719.52C365.26,-710.43 343.96,-699.22 325.48,-689.49"/>
<polygon fill="black" stroke="black" points="327.36,-686.53 316.88,-684.97 324.1,-692.72 327.36,-686.53"/>
</g>
<!-- 23 -->
<g id="node24" class="node">
<title>23</title>
<polygon fill="none" stroke="black" points="883.38,-612 736.12,-612 736.12,-576 883.38,-576 883.38,-612"/>
<text text-anchor="middle" x="809.75" y="-589.33" font-family="Times,serif" font-size="14.00">pangalactic&#45;runopt</text>
</g>
<!-- 3&#45;&gt;23 -->
<g id="edge2" class="edge">
<title>3&#45;&gt;23</title>
<path fill="none" stroke="black" d="M499.87,-721.41C502.86,-720.93 505.83,-720.45 508.75,-720 571.18,-710.32 744.26,-726.77 790.75,-684 807.12,-668.94 811.23,-643.53 811.62,-623.71"/>
<polygon fill="black" stroke="black" points="815.12,-623.69 811.47,-613.74 808.12,-623.79 815.12,-623.69"/>
</g>
<!-- 24 -->
<g id="node25" class="node">
<title>24</title>
<polygon fill="none" stroke="black" points="538.88,-612 376.62,-612 376.62,-576 538.88,-576 538.88,-612"/>
<text text-anchor="middle" x="457.75" y="-589.33" font-family="Times,serif" font-size="14.00">pangalactic&#45;std&#45;store</text>
</g>
<!-- 3&#45;&gt;24 -->
<g id="edge3" class="edge">
<title>3&#45;&gt;24</title>
<path fill="none" stroke="black" d="M418.4,-719.67C421.41,-701.54 426.94,-672.38 434.75,-648 437.44,-639.59 441,-630.7 444.51,-622.66"/>
<polygon fill="black" stroke="black" points="447.63,-624.26 448.56,-613.71 441.25,-621.38 447.63,-624.26"/>
</g>
<!-- 4 -->
<g id="node5" class="node">
<title>4</title>
<polygon fill="none" stroke="black" points="143.5,-180 0,-180 0,-144 143.5,-144 143.5,-180"/>
<text text-anchor="middle" x="71.75" y="-157.32" font-family="Times,serif" font-size="14.00">pangalactic&#45;config</text>
</g>
<!-- 5 -->
<g id="node6" class="node">
<title>5</title>
<polygon fill="none" stroke="black" points="682,-252 487.5,-252 487.5,-216 682,-216 682,-252"/>
<text text-anchor="middle" x="584.75" y="-229.32" font-family="Times,serif" font-size="14.00">pangalactic&#45;layer&#45;cidmeta</text>
</g>
<!-- 8 -->
<g id="node9" class="node">
<title>8</title>
<polygon fill="none" stroke="black" points="550.38,-180 415.12,-180 415.12,-144 550.38,-144 550.38,-180"/>
<text text-anchor="middle" x="482.75" y="-157.32" font-family="Times,serif" font-size="14.00">pangalactic&#45;store</text>
</g>
<!-- 5&#45;&gt;8 -->
<g id="edge4" class="edge">
<title>5&#45;&gt;8</title>
<path fill="none" stroke="black" d="M559.27,-215.52C546.52,-206.76 530.9,-196.04 517.1,-186.58"/>
<polygon fill="black" stroke="black" points="519.37,-183.89 509.15,-181.12 515.41,-189.66 519.37,-183.89"/>
</g>
<!-- 6 -->
<g id="node7" class="node">
<title>6</title>
<polygon fill="none" stroke="black" points="665.75,-108 487.75,-108 487.75,-72 665.75,-72 665.75,-108"/>
<text text-anchor="middle" x="576.75" y="-85.33" font-family="Times,serif" font-size="14.00">pangalactic&#45;iowrappers</text>
</g>
<!-- 7 -->
<g id="node8" class="node">
<title>7</title>
<polygon fill="none" stroke="black" points="867.75,-108 683.75,-108 683.75,-72 867.75,-72 867.75,-108"/>
<text text-anchor="middle" x="775.75" y="-85.33" font-family="Times,serif" font-size="14.00">pangalactic&#45;serialization</text>
</g>
<!-- 7&#45;&gt;0 -->
<g id="edge5" class="edge">
<title>7&#45;&gt;0</title>
<path fill="none" stroke="black" d="M696.33,-71.52C646.4,-60.53 582.38,-46.44 533.23,-35.62"/>
<polygon fill="black" stroke="black" points="534.03,-32.21 523.51,-33.47 532.52,-39.04 534.03,-32.21"/>
</g>
<!-- 8&#45;&gt;1 -->
<g id="edge6" class="edge">
<title>8&#45;&gt;1</title>
<path fill="none" stroke="black" d="M459.51,-143.7C447.88,-135.03 433.6,-124.4 420.93,-114.96"/>
<polygon fill="black" stroke="black" points="423.37,-112.42 413.26,-109.25 419.19,-118.03 423.37,-112.42"/>
</g>
<!-- 8&#45;&gt;2 -->
<g id="edge7" class="edge">
<title>8&#45;&gt;2</title>
<path fill="none" stroke="black" d="M419.31,-143.52C383.2,-133.57 337.86,-121.07 300.46,-110.76"/>
<polygon fill="black" stroke="black" points="301.66,-107.46 291.09,-108.18 299.8,-114.21 301.66,-107.46"/>
</g>
<!-- 8&#45;&gt;6 -->
<g id="edge8" class="edge">
<title>8&#45;&gt;6</title>
<path fill="none" stroke="black" d="M505.99,-143.7C517.62,-135.03 531.9,-124.4 544.57,-114.96"/>
<polygon fill="black" stroke="black" points="546.31,-118.03 552.24,-109.25 542.13,-112.42 546.31,-118.03"/>
</g>
<!-- 8&#45;&gt;7 -->
<g id="edge9" class="edge">
<title>8&#45;&gt;7</title>
<path fill="none" stroke="black" d="M550.71,-144.76C592.63,-134.75 646.73,-121.82 691.39,-111.16"/>
<polygon fill="black" stroke="black" points="692.14,-114.57 701.05,-108.85 690.51,-107.77 692.14,-114.57"/>
</g>
<!-- 9&#45;&gt;4 -->
<g id="edge10" class="edge">
<title>9&#45;&gt;4</title>
<path fill="none" stroke="black" d="M208.66,-647.63C147.86,-628.45 71.75,-590.89 71.75,-523 71.75,-523 71.75,-523 71.75,-305 71.75,-265.74 71.75,-220.38 71.75,-191.69"/>
<polygon fill="black" stroke="black" points="75.25,-192 71.75,-182 68.25,-192 75.25,-192"/>
</g>
<!-- 22 -->
<g id="node23" class="node">
<title>22</title>
<polygon fill="none" stroke="black" points="358.62,-612 206.88,-612 206.88,-576 358.62,-576 358.62,-612"/>
<text text-anchor="middle" x="282.75" y="-589.33" font-family="Times,serif" font-size="14.00">pangalactic&#45;globset</text>
</g>
<!-- 9&#45;&gt;22 -->
<g id="edge11" class="edge">
<title>9&#45;&gt;22</title>
<path fill="none" stroke="black" d="M282.75,-647.7C282.75,-640.41 282.75,-631.73 282.75,-623.54"/>
<polygon fill="black" stroke="black" points="286.25,-623.62 282.75,-613.62 279.25,-623.62 286.25,-623.62"/>
</g>
<!-- 10 -->
<g id="node11" class="node">
<title>10</title>
<polygon fill="none" stroke="black" points="403.62,-396 215.88,-396 215.88,-360 403.62,-360 403.62,-396"/>
<text text-anchor="middle" x="309.75" y="-373.32" font-family="Times,serif" font-size="14.00">pangalactic&#45;dag&#45;transfer</text>
</g>
<!-- 11 -->
<g id="node12" class="node">
<title>11</title>
<polygon fill="none" stroke="black" points="841.62,-324 683.88,-324 683.88,-288 841.62,-288 841.62,-324"/>
<text text-anchor="middle" x="762.75" y="-301.32" font-family="Times,serif" font-size="14.00">pangalactic&#45;layer&#45;dir</text>
</g>
<!-- 10&#45;&gt;11 -->
<g id="edge12" class="edge">
<title>10&#45;&gt;11</title>
<path fill="none" stroke="black" d="M403.89,-362.45C482.7,-350.27 594.46,-333 672.25,-320.99"/>
<polygon fill="black" stroke="black" points="672.62,-324.47 681.97,-319.48 671.55,-317.55 672.62,-324.47"/>
</g>
<!-- 11&#45;&gt;5 -->
<g id="edge14" class="edge">
<title>11&#45;&gt;5</title>
<path fill="none" stroke="black" d="M718.29,-287.52C694.42,-278.13 664.78,-266.47 639.49,-256.53"/>
<polygon fill="black" stroke="black" points="640.94,-253.34 630.36,-252.94 638.38,-259.85 640.94,-253.34"/>
</g>
<!-- 12 -->
<g id="node13" class="node">
<title>12</title>
<polygon fill="none" stroke="black" points="963.5,-252 844,-252 844,-216 963.5,-216 963.5,-252"/>
<text text-anchor="middle" x="903.75" y="-229.32" font-family="Times,serif" font-size="14.00">pangalactic&#45;dir</text>
</g>
<!-- 11&#45;&gt;12 -->
<g id="edge13" class="edge">
<title>11&#45;&gt;12</title>
<path fill="none" stroke="black" d="M797.97,-287.52C816.36,-278.39 839.07,-267.11 858.72,-257.35"/>
<polygon fill="black" stroke="black" points="860.23,-260.52 867.63,-252.93 857.11,-254.25 860.23,-260.52"/>
</g>
<!-- 14 -->
<g id="node15" class="node">
<title>14</title>
<polygon fill="none" stroke="black" points="825.5,-252 700,-252 700,-216 825.5,-216 825.5,-252"/>
<text text-anchor="middle" x="762.75" y="-229.32" font-family="Times,serif" font-size="14.00">pangalactic&#45;link</text>
</g>
<!-- 11&#45;&gt;14 -->
<g id="edge15" class="edge">
<title>11&#45;&gt;14</title>
<path fill="none" stroke="black" d="M762.75,-287.7C762.75,-280.41 762.75,-271.73 762.75,-263.54"/>
<polygon fill="black" stroke="black" points="766.25,-263.62 762.75,-253.62 759.25,-263.62 766.25,-263.62"/>
</g>
<!-- 17 -->
<g id="node18" class="node">
<title>17</title>
<polygon fill="none" stroke="black" points="1103.62,-252 981.88,-252 981.88,-216 1103.62,-216 1103.62,-252"/>
<text text-anchor="middle" x="1042.75" y="-229.32" font-family="Times,serif" font-size="14.00">pangalactic&#45;log</text>
</g>
<!-- 11&#45;&gt;17 -->
<g id="edge16" class="edge">
<title>11&#45;&gt;17</title>
<path fill="none" stroke="black" d="M832.68,-287.52C874.76,-277 928.22,-263.63 970.68,-253.02"/>
<polygon fill="black" stroke="black" points="971.46,-256.43 980.31,-250.61 969.76,-249.64 971.46,-256.43"/>
</g>
<!-- 13 -->
<g id="node14" class="node">
<title>13</title>
<polygon fill="none" stroke="black" points="998.62,-180 858.88,-180 858.88,-144 998.62,-144 998.62,-180"/>
<text text-anchor="middle" x="928.75" y="-157.32" font-family="Times,serif" font-size="14.00">pangalactic&#45;name</text>
</g>
<!-- 12&#45;&gt;13 -->
<g id="edge17" class="edge">
<title>12&#45;&gt;13</title>
<path fill="none" stroke="black" d="M909.93,-215.7C912.62,-208.15 915.85,-199.12 918.86,-190.68"/>
<polygon fill="black" stroke="black" points="922.06,-192.12 922.13,-181.53 915.47,-189.77 922.06,-192.12"/>
</g>
<!-- 14&#45;&gt;8 -->
<g id="edge19" class="edge">
<title>14&#45;&gt;8</title>
<path fill="none" stroke="black" stroke-dasharray="1,5" d="M699.56,-217.2C658.76,-207 605.35,-193.65 561.75,-182.75"/>
<polygon fill="black" stroke="black" points="562.62,-179.36 552.07,-180.33 560.92,-186.15 562.62,-179.36"/>
</g>
<!-- 15 -->
<g id="node16" class="node">
<title>15</title>
<polygon fill="none" stroke="black" points="840.5,-180 685,-180 685,-144 840.5,-144 840.5,-180"/>
<text text-anchor="middle" x="762.75" y="-157.32" font-family="Times,serif" font-size="14.00">pangalactic&#45;linkkind</text>
</g>
<!-- 14&#45;&gt;15 -->
<g id="edge18" class="edge">
<title>14&#45;&gt;15</title>
<path fill="none" stroke="black" d="M762.75,-215.7C762.75,-208.41 762.75,-199.73 762.75,-191.54"/>
<polygon fill="black" stroke="black" points="766.25,-191.62 762.75,-181.62 759.25,-191.62 766.25,-191.62"/>
</g>
<!-- 16 -->
<g id="node17" class="node">
<title>16</title>
<polygon fill="none" stroke="black" points="1055.62,-108 885.88,-108 885.88,-72 1055.62,-72 1055.62,-108"/>
<text text-anchor="middle" x="970.75" y="-85.33" font-family="Times,serif" font-size="14.00">pangalactic&#45;primitives</text>
</g>
<!-- 15&#45;&gt;16 -->
<g id="edge20" class="edge">
<title>15&#45;&gt;16</title>
<path fill="none" stroke="black" d="M814.7,-143.52C843.1,-133.96 878.48,-122.05 908.36,-112"/>
<polygon fill="black" stroke="black" points="909.31,-115.37 917.67,-108.86 907.07,-108.74 909.31,-115.37"/>
</g>
<!-- 18 -->
<g id="node19" class="node">
<title>18</title>
<polygon fill="none" stroke="black" points="296,-180 161.5,-180 161.5,-144 296,-144 296,-180"/>
<text text-anchor="middle" x="228.75" y="-157.32" font-family="Times,serif" font-size="14.00">pangalactic&#45;hash</text>
</g>
<!-- 18&#45;&gt;0 -->
<g id="edge21" class="edge">
<title>18&#45;&gt;0</title>
<path fill="none" stroke="black" d="M193.7,-143.6C180.19,-134.91 166.21,-123.01 158.75,-108 151.63,-93.67 148.47,-84.26 158.75,-72 186.71,-38.64 303.01,-26.27 382.04,-21.68"/>
<polygon fill="black" stroke="black" points="382.11,-25.19 391.91,-21.15 381.73,-18.2 382.11,-25.19"/>
</g>
<!-- 18&#45;&gt;2 -->
<g id="edge22" class="edge">
<title>18&#45;&gt;2</title>
<path fill="none" stroke="black" d="M228.75,-143.7C228.75,-136.41 228.75,-127.73 228.75,-119.54"/>
<polygon fill="black" stroke="black" points="232.25,-119.62 228.75,-109.62 225.25,-119.62 232.25,-119.62"/>
</g>
<!-- 19 -->
<g id="node20" class="node">
<title>19</title>
<polygon fill="none" stroke="black" points="469.62,-252 293.88,-252 293.88,-216 469.62,-216 469.62,-252"/>
<text text-anchor="middle" x="381.75" y="-229.32" font-family="Times,serif" font-size="14.00">pangalactic&#45;store&#45;mem</text>
</g>
<!-- 19&#45;&gt;8 -->
<g id="edge24" class="edge">
<title>19&#45;&gt;8</title>
<path fill="none" stroke="black" d="M406.98,-215.52C419.6,-206.76 435.07,-196.04 448.73,-186.58"/>
<polygon fill="black" stroke="black" points="450.38,-189.7 456.6,-181.12 446.39,-183.94 450.38,-189.7"/>
</g>
<!-- 19&#45;&gt;18 -->
<g id="edge23" class="edge">
<title>19&#45;&gt;18</title>
<path fill="none" stroke="black" d="M343.54,-215.52C323.38,-206.29 298.44,-194.89 276.97,-185.06"/>
<polygon fill="black" stroke="black" points="278.67,-181.99 268.12,-181.01 275.76,-188.35 278.67,-181.99"/>
</g>
<!-- 20 -->
<g id="node21" class="node">
<title>20</title>
<polygon fill="none" stroke="black" points="390.88,-540 228.62,-540 228.62,-504 390.88,-504 390.88,-540"/>
<text text-anchor="middle" x="309.75" y="-517.33" font-family="Times,serif" font-size="14.00">pangalactic&#45;endpoint</text>
</g>
<!-- 21 -->
<g id="node22" class="node">
<title>21</title>
<polygon fill="none" stroke="black" points="388.25,-468 231.25,-468 231.25,-432 388.25,-432 388.25,-468"/>
<text text-anchor="middle" x="309.75" y="-445.32" font-family="Times,serif" font-size="14.00">pangalactic&#45;linkpath</text>
</g>
<!-- 20&#45;&gt;21 -->
<g id="edge25" class="edge">
<title>20&#45;&gt;21</title>
<path fill="none" stroke="black" d="M309.75,-503.7C309.75,-496.41 309.75,-487.73 309.75,-479.54"/>
<polygon fill="black" stroke="black" points="313.25,-479.62 309.75,-469.62 306.25,-479.62 313.25,-479.62"/>
</g>
<!-- 21&#45;&gt;10 -->
<g id="edge26" class="edge">
<title>21&#45;&gt;10</title>
<path fill="none" stroke="black" d="M309.75,-431.7C309.75,-424.41 309.75,-415.73 309.75,-407.54"/>
<polygon fill="black" stroke="black" points="313.25,-407.62 309.75,-397.62 306.25,-407.62 313.25,-407.62"/>
</g>
<!-- 22&#45;&gt;20 -->
<g id="edge27" class="edge">
<title>22&#45;&gt;20</title>
<path fill="none" stroke="black" d="M289.42,-575.7C292.33,-568.15 295.82,-559.12 299.07,-550.68"/>
<polygon fill="black" stroke="black" points="302.27,-552.11 302.61,-541.52 295.74,-549.59 302.27,-552.11"/>
</g>
<!-- 23&#45;&gt;17 -->
<g id="edge28" class="edge">
<title>23&#45;&gt;17</title>
<path fill="none" stroke="black" d="M861.96,-575.56C913.21,-554.75 983.75,-514.56 983.75,-451 983.75,-451 983.75,-451 983.75,-377 983.75,-334.2 1006.89,-289.32 1024.18,-261.75"/>
<polygon fill="black" stroke="black" points="1026.91,-263.97 1029.41,-253.68 1021.04,-260.17 1026.91,-263.97"/>
</g>
<!-- 24&#45;&gt;19 -->
<g id="edge32" class="edge">
<title>24&#45;&gt;19</title>
<path fill="none" stroke="black" d="M452.49,-575.7C444.89,-549.14 431.75,-496.61 431.75,-451 431.75,-451 431.75,-451 431.75,-377 431.75,-335.05 412.1,-289.89 397.43,-262.03"/>
<polygon fill="black" stroke="black" points="400.69,-260.68 392.83,-253.57 394.54,-264.03 400.69,-260.68"/>
</g>
<!-- 24&#45;&gt;20 -->
<g id="edge29" class="edge">
<title>24&#45;&gt;20</title>
<path fill="none" stroke="black" d="M420.79,-575.52C401.38,-566.34 377.39,-554.99 356.68,-545.2"/>
<polygon fill="black" stroke="black" points="358.4,-542.14 347.87,-541.03 355.41,-548.47 358.4,-542.14"/>
</g>
<!-- 25 -->
<g id="node26" class="node">
<title>25</title>
<polygon fill="none" stroke="black" points="593.12,-540 462.38,-540 462.38,-504 593.12,-504 593.12,-540"/>
<text text-anchor="middle" x="527.75" y="-517.33" font-family="Times,serif" font-size="14.00">pangalactic&#45;host</text>
</g>
<!-- 24&#45;&gt;25 -->
<g id="edge30" class="edge">
<title>24&#45;&gt;25</title>
<path fill="none" stroke="black" d="M475.05,-575.7C483.36,-567.39 493.47,-557.28 502.61,-548.14"/>
<polygon fill="black" stroke="black" points="504.98,-550.72 509.58,-541.17 500.03,-545.77 504.98,-550.72"/>
</g>
<!-- 29 -->
<g id="node30" class="node">
<title>29</title>
<polygon fill="none" stroke="black" points="276,-252 99.5,-252 99.5,-216 276,-216 276,-252"/>
<text text-anchor="middle" x="187.75" y="-229.32" font-family="Times,serif" font-size="14.00">pangalactic&#45;store&#45;dirdb</text>
</g>
<!-- 24&#45;&gt;29 -->
<g id="edge31" class="edge">
<title>24&#45;&gt;29</title>
<path fill="none" stroke="black" d="M376.45,-576.83C309.92,-563.3 225.83,-545.36 219.75,-540 188.21,-512.21 187.75,-493.03 187.75,-451 187.75,-451 187.75,-451 187.75,-377 187.75,-337.74 187.75,-292.38 187.75,-263.69"/>
<polygon fill="black" stroke="black" points="191.25,-264 187.75,-254 184.25,-264 191.25,-264"/>
</g>
<!-- 27 -->
<g id="node28" class="node">
<title>27</title>
<polygon fill="none" stroke="black" points="781.88,-468 613.62,-468 613.62,-432 781.88,-432 781.88,-468"/>
<text text-anchor="middle" x="697.75" y="-445.32" font-family="Times,serif" font-size="14.00">pangalactic&#45;schemata</text>
</g>
<!-- 25&#45;&gt;27 -->
<g id="edge33" class="edge">
<title>25&#45;&gt;27</title>
<path fill="none" stroke="black" d="M570.21,-503.52C592.91,-494.17 621.07,-482.57 645.15,-472.66"/>
<polygon fill="black" stroke="black" points="646.22,-476 654.14,-468.96 643.56,-469.53 646.22,-476"/>
</g>
<!-- 28 -->
<g id="node29" class="node">
<title>28</title>
<polygon fill="none" stroke="black" points="595.38,-468 460.12,-468 460.12,-432 595.38,-432 595.38,-468"/>
<text text-anchor="middle" x="527.75" y="-445.32" font-family="Times,serif" font-size="14.00">pangalactic&#45;table</text>
</g>
<!-- 25&#45;&gt;28 -->
<g id="edge34" class="edge">
<title>25&#45;&gt;28</title>
<path fill="none" stroke="black" d="M527.75,-503.7C527.75,-496.41 527.75,-487.73 527.75,-479.54"/>
<polygon fill="black" stroke="black" points="531.25,-479.62 527.75,-469.62 524.25,-479.62 531.25,-479.62"/>
</g>
<!-- 26 -->
<g id="node27" class="node">
<title>26</title>
<polygon fill="none" stroke="black" points="607.75,-396 459.75,-396 459.75,-360 607.75,-360 607.75,-396"/>
<text text-anchor="middle" x="533.75" y="-373.32" font-family="Times,serif" font-size="14.00">pangalactic&#45;handle</text>
</g>
<!-- 27&#45;&gt;11 -->
<g id="edge35" class="edge">
<title>27&#45;&gt;11</title>
<path fill="none" stroke="black" stroke-dasharray="1,5" d="M698.58,-431.74C700.07,-413.16 704.21,-383.14 715.75,-360 720.67,-350.14 727.9,-340.69 735.22,-332.57"/>
<polygon fill="black" stroke="black" points="737.68,-335.07 742.06,-325.42 732.62,-330.23 737.68,-335.07"/>
</g>
<!-- 28&#45;&gt;26 -->
<g id="edge36" class="edge">
<title>28&#45;&gt;26</title>
<path fill="none" stroke="black" d="M529.23,-431.7C529.86,-424.41 530.6,-415.73 531.3,-407.54"/>
<polygon fill="black" stroke="black" points="534.79,-407.87 532.15,-397.61 527.81,-407.28 534.79,-407.87"/>
</g>
<!-- 29&#45;&gt;4 -->
<g id="edge37" class="edge">
<title>29&#45;&gt;4</title>
<path fill="none" stroke="black" d="M158.78,-215.52C144,-206.6 125.82,-195.63 109.92,-186.03"/>
<polygon fill="black" stroke="black" points="112.02,-183.21 101.65,-181.04 108.4,-189.21 112.02,-183.21"/>
</g>
<!-- 29&#45;&gt;8 -->
<g id="edge39" class="edge">
<title>29&#45;&gt;8</title>
<path fill="none" stroke="black" d="M261.43,-215.52C304.77,-205.23 359.57,-192.23 403.8,-181.73"/>
<polygon fill="black" stroke="black" points="404.41,-185.19 413.33,-179.47 402.79,-178.38 404.41,-185.19"/>
</g>
<!-- 29&#45;&gt;18 -->
<g id="edge38" class="edge">
<title>29&#45;&gt;18</title>
<path fill="none" stroke="black" d="M197.88,-215.7C202.45,-207.9 207.95,-198.51 213.04,-189.83"/>
<polygon fill="black" stroke="black" points="215.93,-191.81 217.97,-181.41 209.89,-188.27 215.93,-191.81"/>
</g>
<!-- 30 -->
<g id="node31" class="node">
<title>30</title>
<polygon fill="none" stroke="black" points="668.25,-756 517.25,-756 517.25,-720 668.25,-720 668.25,-756"/>
<text text-anchor="middle" x="592.75" y="-733.33" font-family="Times,serif" font-size="14.00">pangalactic&#45;test&#45;dir</text>
</g>
<!-- 31 -->
<g id="node32" class="node">
<title>31</title>
<polygon fill="none" stroke="black" points="865.5,-756 686,-756 686,-720 865.5,-720 865.5,-756"/>
<text text-anchor="middle" x="775.75" y="-733.33" font-family="Times,serif" font-size="14.00">pangalactic&#45;test&#45;runner</text>
</g>
<!-- 32 -->
<g id="node33" class="node">
<title>32</title>
<polygon fill="none" stroke="black" points="782,-684 617.5,-684 617.5,-648 782,-648 782,-684"/>
<text text-anchor="middle" x="699.75" y="-661.33" font-family="Times,serif" font-size="14.00">pangalactic&#45;cli&#45;derive</text>
</g>
<!-- 32&#45;&gt;23 -->
<g id="edge40" class="edge">
<title>32&#45;&gt;23</title>
<path fill="none" stroke="black" d="M727.22,-647.52C741.11,-638.68 758.15,-627.84 773.13,-618.3"/>
<polygon fill="black" stroke="black" points="774.79,-621.39 781.35,-613.07 771.03,-615.49 774.79,-621.39"/>
</g>
<!-- 32&#45;&gt;24 -->
<g id="edge41" class="edge">
<title>32&#45;&gt;24</title>
<path fill="none" stroke="black" d="M639.31,-647.52C605.69,-637.79 563.66,-625.64 528.51,-615.47"/>
<polygon fill="black" stroke="black" points="529.87,-612.22 519.29,-612.8 527.93,-618.94 529.87,-612.22"/>
</g>
<!-- 33 -->
<g id="node34" class="node">
<title>33</title>
<polygon fill="none" stroke="black" points="599.5,-684 444,-684 444,-648 599.5,-648 599.5,-684"/>
<text text-anchor="middle" x="521.75" y="-661.33" font-family="Times,serif" font-size="14.00">pangalactic&#45;cli&#45;store</text>
</g>
<!-- 33&#45;&gt;22 -->
<g id="edge42" class="edge">
<title>33&#45;&gt;22</title>
<path fill="none" stroke="black" d="M462.06,-647.52C429,-637.83 387.71,-625.74 353.08,-615.6"/>
<polygon fill="black" stroke="black" points="354.13,-612.26 343.55,-612.81 352.16,-618.98 354.13,-612.26"/>
</g>
<!-- 33&#45;&gt;23 -->
<g id="edge44" class="edge">
<title>33&#45;&gt;23</title>
<path fill="none" stroke="black" d="M593.68,-647.52C634.21,-637.67 685,-625.32 727.16,-615.07"/>
<polygon fill="black" stroke="black" points="727.88,-618.5 736.77,-612.74 726.22,-611.7 727.88,-618.5"/>
</g>
<!-- 33&#45;&gt;24 -->
<g id="edge45" class="edge">
<title>33&#45;&gt;24</title>
<path fill="none" stroke="black" d="M505.93,-647.7C498.41,-639.47 489.28,-629.48 480.99,-620.42"/>
<polygon fill="black" stroke="black" points="483.74,-618.24 474.41,-613.22 478.57,-622.96 483.74,-618.24"/>
</g>
<!-- 34 -->
<g id="node35" class="node">
<title>34</title>
<polygon fill="none" stroke="black" points="718.5,-612 557,-612 557,-576 718.5,-576 718.5,-612"/>
<text text-anchor="middle" x="637.75" y="-589.33" font-family="Times,serif" font-size="14.00">pangalactic&#45;manifest</text>
</g>
<!-- 33&#45;&gt;34 -->
<g id="edge43" class="edge">
<title>33&#45;&gt;34</title>
<path fill="none" stroke="black" d="M550.72,-647.52C565.5,-638.6 583.68,-627.63 599.58,-618.03"/>
<polygon fill="black" stroke="black" points="601.1,-621.21 607.85,-613.04 597.48,-615.21 601.1,-621.21"/>
</g>
<!-- 35 -->
<g id="node36" class="node">
<title>35</title>
<polygon fill="none" stroke="black" points="896.75,-396 724.75,-396 724.75,-360 896.75,-360 896.75,-396"/>
<text text-anchor="middle" x="810.75" y="-373.32" font-family="Times,serif" font-size="14.00">pangalactic&#45;nested&#45;dir</text>
</g>
<!-- 34&#45;&gt;35 -->
<g id="edge46" class="edge">
<title>34&#45;&gt;35</title>
<path fill="none" stroke="black" d="M718.96,-577.07C740.46,-569.2 761.81,-557.47 776.75,-540 808.63,-502.71 813.04,-442.99 812.49,-407.72"/>
<polygon fill="black" stroke="black" points="815.99,-407.73 812.17,-397.85 808.99,-407.96 815.99,-407.73"/>
</g>
<!-- 35&#45;&gt;11 -->
<g id="edge47" class="edge">
<title>35&#45;&gt;11</title>
<path fill="none" stroke="black" d="M798.88,-359.7C793.48,-351.81 786.96,-342.3 780.95,-333.55"/>
<polygon fill="black" stroke="black" points="783.88,-331.62 775.33,-325.35 778.1,-335.58 783.88,-331.62"/>
</g>
<!-- 36 -->
<g id="node37" class="node">
<title>36</title>
<polygon fill="none" stroke="black" points="767.62,-540 627.88,-540 627.88,-504 767.62,-504 767.62,-540"/>
<text text-anchor="middle" x="697.75" y="-517.33" font-family="Times,serif" font-size="14.00">pangalactic&#45;guest</text>
</g>
<!-- 36&#45;&gt;27 -->
<g id="edge48" class="edge">
<title>36&#45;&gt;27</title>
<path fill="none" stroke="black" d="M697.75,-503.7C697.75,-496.41 697.75,-487.73 697.75,-479.54"/>
<polygon fill="black" stroke="black" points="701.25,-479.62 697.75,-469.62 694.25,-479.62 701.25,-479.62"/>
</g>
<!-- 37 -->
<g id="node38" class="node">
<title>37</title>
<polygon fill="none" stroke="black" points="979.5,-756 884,-756 884,-720 979.5,-720 979.5,-756"/>
<text text-anchor="middle" x="931.75" y="-733.33" font-family="Times,serif" font-size="14.00">pangalactic</text>
</g>
</g>
</svg>
